<svg width="32" height="33" viewBox="0 0 32 33" fill="none" xmlns="http://www.w3.org/2000/svg">
<g id="Layer_1" clip-path="url(#clip0_740_15059)">
<g id="Group">
<g id="Group_2">
<path id="Vector" d="M29.9286 16.2215L20.967 10.9447L29.9286 5.668C30.1763 5.52213 30.2958 5.22844 30.2202 4.95106C30.1445 4.67362 29.8926 4.48125 29.6052 4.48125H4.33462V4.02063C5.09175 3.75625 5.63656 3.0355 5.63656 2.18944C5.6365 1.12 4.7665 0.25 3.69719 0.25C2.62788 0.25 1.75781 1.12 1.75781 2.18938C1.75781 3.03544 2.30262 3.75631 3.05975 4.02056V31.6125C3.05975 31.9645 3.34519 32.2499 3.69719 32.2499C4.04919 32.2499 4.33462 31.9645 4.33462 31.6125V17.4083H29.6052C29.8927 17.4083 30.1446 17.2158 30.2202 16.9384C30.2958 16.661 30.1764 16.3674 29.9286 16.2215ZM3.69719 2.85387C3.33081 2.85387 3.03269 2.55581 3.03269 2.18938C3.03269 1.823 3.33075 1.52488 3.69719 1.52488C4.06363 1.52488 4.36169 1.82294 4.36169 2.18938C4.36169 2.55581 4.06356 2.85387 3.69719 2.85387ZM4.33462 16.1333V5.75612H27.2663L19.3872 10.3954C19.1926 10.51 19.0732 10.7189 19.0732 10.9447C19.0732 11.1706 19.1926 11.3795 19.3872 11.4941L27.2663 16.1334H4.33462V16.1333Z" fill="#161616"/>
</g>
</g>
<g id="Group_3">
<g id="Group_4">
<path id="Vector_2" d="M14.568 14.1807H14.3728C14.0208 14.1807 13.7354 14.4661 13.7354 14.8181C13.7354 15.1701 14.0208 15.4555 14.3728 15.4555H14.568C14.92 15.4555 15.2055 15.1701 15.2055 14.8181C15.2055 14.4661 14.92 14.1807 14.568 14.1807Z" fill="#161616"/>
</g>
</g>
<g id="Group_5">
<g id="Group_6">
<path id="Vector_3" d="M12.2892 14.1807H5.71459C5.36259 14.1807 5.07715 14.4661 5.07715 14.8181C5.07715 15.1701 5.36259 15.4555 5.71459 15.4555H12.2893C12.6413 15.4555 12.9267 15.1701 12.9267 14.8181C12.9267 14.4661 12.6413 14.1807 12.2892 14.1807Z" fill="#161616"/>
</g>
</g>
</g>
<defs>
<clipPath id="clip0_740_15059">
<rect width="32" height="32" fill="white" transform="translate(0 0.25)"/>
</clipPath>
</defs>
</svg>
