<svg width="32" height="32" viewBox="0 0 32 32" fill="none" xmlns="http://www.w3.org/2000/svg">
<path d="M30.5 2H1.5C1.36739 2 1.24021 2.05268 1.14645 2.14645C1.05268 2.24021 1 2.36739 1 2.5V4.5C1 4.63261 1.05268 4.75979 1.14645 4.85355C1.24021 4.94732 1.36739 5 1.5 5H5V7.56331C4.57051 7.67403 4.19001 7.92436 3.91834 8.27495C3.64667 8.62553 3.49924 9.05647 3.49924 9.5C3.49924 9.94353 3.64667 10.3745 3.91834 10.7251C4.19001 11.0756 4.57051 11.326 5 11.4367V13.3886L4.54275 14.3625L3.4245 14.5333C3.33357 14.5472 3.24822 14.5858 3.17784 14.645C3.10746 14.7042 3.05478 14.7817 3.02559 14.8689C2.9964 14.9562 2.99183 15.0497 3.01239 15.1394C3.03295 15.229 3.07784 15.3113 3.14212 15.3771L3.96594 16.2214L3.7705 17.4196C3.75543 17.5122 3.76672 17.6071 3.80308 17.6936C3.83943 17.7801 3.89938 17.8546 3.97608 17.9086C4.05278 17.9627 4.14313 17.994 4.2368 17.9991C4.33048 18.0042 4.4237 17.9829 4.50581 17.9375L5 17.6644V19.5633C4.57051 19.674 4.19001 19.9244 3.91834 20.2749C3.64667 20.6255 3.49924 21.0565 3.49924 21.5C3.49924 21.9435 3.64667 22.3745 3.91834 22.7251C4.19001 23.0756 4.57051 23.326 5 23.4367V25.3886L4.54275 26.3625L3.4245 26.5333C3.33357 26.5472 3.24822 26.5858 3.17784 26.645C3.10746 26.7042 3.05478 26.7817 3.02559 26.8689C2.9964 26.9562 2.99183 27.0497 3.01239 27.1394C3.03295 27.229 3.07784 27.3113 3.14212 27.3771L3.96594 28.2214L3.7705 29.4196C3.75543 29.5122 3.76672 29.6071 3.80308 29.6936C3.83943 29.7801 3.89938 29.8546 3.97608 29.9086C4.05278 29.9627 4.14313 29.994 4.2368 29.9991C4.33048 30.0042 4.4237 29.9829 4.50581 29.9375L5.5 29.388L6.49419 29.9375C6.57631 29.9829 6.66956 30.0043 6.76326 29.9992C6.85696 29.9941 6.94733 29.9627 7.02404 29.9087C7.10075 29.8546 7.16071 29.7801 7.19706 29.6936C7.2334 29.607 7.24466 29.5121 7.22956 29.4194L7.03412 28.2213L7.85794 27.3769C7.92222 27.3111 7.96711 27.2289 7.98767 27.1392C8.00822 27.0496 8.00365 26.956 7.97445 26.8688C7.94526 26.7816 7.89257 26.7041 7.82218 26.6449C7.75179 26.5857 7.66643 26.547 7.5755 26.5332L6.45731 26.3625L6 25.3884V23.4368C6.42934 23.3259 6.80966 23.0754 7.08119 22.7249C7.35272 22.3743 7.50006 21.9434 7.50006 21.5C7.50006 21.0566 7.35272 20.6257 7.08119 20.2751C6.80966 19.9246 6.42934 19.6741 6 19.5632V17.6644L6.49419 17.9375C6.57631 17.9829 6.66956 18.0043 6.76326 17.9992C6.85696 17.9941 6.94733 17.9627 7.02404 17.9087C7.10075 17.8546 7.16071 17.7801 7.19706 17.6936C7.2334 17.607 7.24466 17.5121 7.22956 17.4194L7.03412 16.2213L7.85794 15.3769C7.92222 15.3111 7.96711 15.2289 7.98767 15.1393C8.00822 15.0496 8.00365 14.956 7.97445 14.8688C7.94526 14.7816 7.89257 14.7041 7.82218 14.6449C7.75179 14.5857 7.66643 14.547 7.5755 14.5332L6.45731 14.3625L6 13.3884V11.4368C6.42934 11.3259 6.80966 11.0754 7.08119 10.7249C7.35272 10.3743 7.50006 9.94343 7.50006 9.5C7.50006 9.05657 7.35272 8.62571 7.08119 8.27513C6.80966 7.92456 6.42934 7.67415 6 7.56325V5H12V7.38856L11.5428 8.3625L10.4245 8.53331C10.3336 8.54715 10.2482 8.58581 10.1778 8.64502C10.1075 8.70424 10.0548 8.78172 10.0256 8.86894C9.9964 8.95616 9.99183 9.04974 10.0124 9.13939C10.033 9.22904 10.0778 9.31128 10.1421 9.37706L10.9659 10.2214L10.7705 11.4196C10.7554 11.5122 10.7667 11.6071 10.8031 11.6936C10.8394 11.7801 10.8994 11.8546 10.9761 11.9086C11.0528 11.9627 11.1431 11.994 11.2368 11.9991C11.3305 12.0042 11.4237 11.9829 11.5058 11.9375L12 11.6644V13.5633C11.5705 13.674 11.19 13.9244 10.9183 14.2749C10.6467 14.6255 10.4992 15.0565 10.4992 15.5C10.4992 15.9435 10.6467 16.3745 10.9183 16.7251C11.19 17.0756 11.5705 17.326 12 17.4367V19.3886L11.5428 20.3625L10.4245 20.5333C10.3336 20.5472 10.2482 20.5858 10.1778 20.645C10.1075 20.7042 10.0548 20.7817 10.0256 20.8689C9.9964 20.9562 9.99183 21.0497 10.0124 21.1394C10.033 21.229 10.0778 21.3113 10.1421 21.3771L10.9659 22.2214L10.7705 23.4196C10.7554 23.5122 10.7667 23.6071 10.8031 23.6936C10.8394 23.7801 10.8994 23.8546 10.9761 23.9086C11.0528 23.9627 11.1431 23.994 11.2368 23.9991C11.3305 24.0042 11.4237 23.9829 11.5058 23.9375L12 23.6644V25.5633C11.5287 25.685 11.1179 25.9744 10.8447 26.3773C10.5715 26.7802 10.4546 27.2689 10.5159 27.7518C10.5773 28.2347 10.8126 28.6787 11.1779 29.0005C11.5431 29.3223 12.0132 29.4998 12.5 29.4998C12.9868 29.4998 13.4569 29.3223 13.8221 29.0005C14.1874 28.6787 14.4227 28.2347 14.4841 27.7518C14.5454 27.2689 14.4285 26.7802 14.1553 26.3773C13.8821 25.9744 13.4713 25.685 13 25.5633V23.6644L13.4942 23.9375C13.5763 23.9829 13.6696 24.0043 13.7633 23.9992C13.857 23.9941 13.9473 23.9627 14.024 23.9087C14.1008 23.8546 14.1607 23.7801 14.1971 23.6936C14.2334 23.607 14.2447 23.5121 14.2296 23.4194L14.0341 22.2213L14.8579 21.3769C14.9222 21.3111 14.9671 21.2289 14.9877 21.1392C15.0082 21.0496 15.0037 20.956 14.9745 20.8688C14.9453 20.7816 14.8926 20.7041 14.8222 20.6449C14.7518 20.5857 14.6664 20.547 14.5755 20.5332L13.4573 20.3625L13 19.3884V17.4368C13.4293 17.3259 13.8097 17.0754 14.0812 16.7249C14.3527 16.3743 14.5001 15.9434 14.5001 15.5C14.5001 15.0566 14.3527 14.6257 14.0812 14.2751C13.8097 13.9246 13.4293 13.6741 13 13.5632V11.6644L13.4942 11.9375C13.5763 11.9829 13.6696 12.0043 13.7633 11.9992C13.857 11.9941 13.9473 11.9627 14.024 11.9087C14.1008 11.8546 14.1607 11.7801 14.1971 11.6936C14.2334 11.607 14.2447 11.5121 14.2296 11.4194L14.0341 10.2213L14.8579 9.37694C14.9222 9.31115 14.9671 9.2289 14.9877 9.13925C15.0082 9.0496 15.0037 8.95601 14.9745 8.86879C14.9453 8.78156 14.8926 8.70409 14.8222 8.64488C14.7518 8.58567 14.6664 8.54702 14.5755 8.53319L13.4573 8.3625L13 7.38837V5H19V7.56331C18.5705 7.67403 18.19 7.92436 17.9183 8.27495C17.6467 8.62553 17.4992 9.05647 17.4992 9.5C17.4992 9.94353 17.6467 10.3745 17.9183 10.7251C18.19 11.0756 18.5705 11.326 19 11.4367V13.3886L18.5427 14.3625L17.4245 14.5333C17.3336 14.5472 17.2482 14.5858 17.1778 14.645C17.1075 14.7042 17.0548 14.7817 17.0256 14.8689C16.9964 14.9562 16.9918 15.0497 17.0124 15.1394C17.033 15.229 17.0778 15.3113 17.1421 15.3771L17.9659 16.2214L17.7705 17.4196C17.7554 17.5122 17.7667 17.6071 17.8031 17.6936C17.8394 17.7801 17.8994 17.8546 17.9761 17.9086C18.0528 17.9627 18.1431 17.994 18.2368 17.9991C18.3305 18.0042 18.4237 17.9829 18.5058 17.9375L19 17.6644V19.5633C18.5705 19.674 18.19 19.9244 17.9183 20.2749C17.6467 20.6255 17.4992 21.0565 17.4992 21.5C17.4992 21.9435 17.6467 22.3745 17.9183 22.7251C18.19 23.0756 18.5705 23.326 19 23.4367V25.3886L18.5427 26.3625L17.4245 26.5333C17.3336 26.5472 17.2482 26.5858 17.1778 26.645C17.1075 26.7042 17.0548 26.7817 17.0256 26.8689C16.9964 26.9562 16.9918 27.0497 17.0124 27.1394C17.033 27.229 17.0778 27.3113 17.1421 27.3771L17.9659 28.2214L17.7705 29.4196C17.7554 29.5122 17.7667 29.6071 17.8031 29.6936C17.8394 29.7801 17.8994 29.8546 17.9761 29.9086C18.0528 29.9627 18.1431 29.994 18.2368 29.9991C18.3305 30.0042 18.4237 29.9829 18.5058 29.9375L19.5 29.388L20.4942 29.9375C20.5763 29.9829 20.6696 30.0043 20.7633 29.9992C20.857 29.9941 20.9473 29.9627 21.024 29.9087C21.1008 29.8546 21.1607 29.7801 21.1971 29.6936C21.2334 29.607 21.2447 29.5121 21.2296 29.4194L21.0341 28.2213L21.8579 27.3769C21.9222 27.3111 21.9671 27.2289 21.9877 27.1392C22.0082 27.0496 22.0037 26.956 21.9745 26.8688C21.9453 26.7816 21.8926 26.7041 21.8222 26.6449C21.7518 26.5857 21.6664 26.547 21.5755 26.5332L20.4573 26.3625L20 25.3884V23.4368C20.4293 23.3259 20.8097 23.0754 21.0812 22.7249C21.3527 22.3743 21.5001 21.9434 21.5001 21.5C21.5001 21.0566 21.3527 20.6257 21.0812 20.2751C20.8097 19.9246 20.4293 19.6741 20 19.5632V17.6644L20.4942 17.9375C20.5763 17.9829 20.6696 18.0043 20.7633 17.9992C20.857 17.9941 20.9473 17.9627 21.024 17.9087C21.1008 17.8546 21.1607 17.7801 21.1971 17.6936C21.2334 17.607 21.2447 17.5121 21.2296 17.4194L21.0341 16.2213L21.8579 15.3769C21.9222 15.3111 21.9671 15.2289 21.9877 15.1393C22.0082 15.0496 22.0037 14.956 21.9745 14.8688C21.9453 14.7816 21.8926 14.7041 21.8222 14.6449C21.7518 14.5857 21.6664 14.547 21.5755 14.5332L20.4573 14.3625L20 13.3884V11.4368C20.4293 11.3259 20.8097 11.0754 21.0812 10.7249C21.3527 10.3743 21.5001 9.94343 21.5001 9.5C21.5001 9.05657 21.3527 8.62571 21.0812 8.27513C20.8097 7.92456 20.4293 7.67415 20 7.56325V5H26V7.38856L25.5427 8.3625L24.4245 8.53331C24.3336 8.54715 24.2482 8.58581 24.1778 8.64502C24.1075 8.70424 24.0548 8.78172 24.0256 8.86894C23.9964 8.95616 23.9918 9.04974 24.0124 9.13939C24.033 9.22904 24.0778 9.31128 24.1421 9.37706L24.9659 10.2214L24.7705 11.4196C24.7554 11.5122 24.7667 11.6071 24.8031 11.6936C24.8394 11.7801 24.8994 11.8546 24.9761 11.9086C25.0528 11.9627 25.1431 11.994 25.2368 11.9991C25.3305 12.0042 25.4237 11.9829 25.5058 11.9375L26 11.6644V13.5633C25.5705 13.674 25.19 13.9244 24.9183 14.2749C24.6467 14.6255 24.4992 15.0565 24.4992 15.5C24.4992 15.9435 24.6467 16.3745 24.9183 16.7251C25.19 17.0756 25.5705 17.326 26 17.4367V19.3886L25.5427 20.3625L24.4245 20.5333C24.3336 20.5472 24.2482 20.5858 24.1778 20.645C24.1075 20.7042 24.0548 20.7817 24.0256 20.8689C23.9964 20.9562 23.9918 21.0497 24.0124 21.1394C24.033 21.229 24.0778 21.3113 24.1421 21.3771L24.9659 22.2214L24.7705 23.4196C24.7554 23.5122 24.7667 23.6071 24.8031 23.6936C24.8394 23.7801 24.8994 23.8546 24.9761 23.9086C25.0528 23.9627 25.1431 23.994 25.2368 23.9991C25.3305 24.0042 25.4237 23.9829 25.5058 23.9375L26 23.6644V25.5633C25.5287 25.685 25.1179 25.9744 24.8447 26.3773C24.5715 26.7802 24.4546 27.2689 24.5159 27.7518C24.5773 28.2347 24.8126 28.6787 25.1779 29.0005C25.5431 29.3223 26.0132 29.4998 26.5 29.4998C26.9868 29.4998 27.4569 29.3223 27.8221 29.0005C28.1874 28.6787 28.4227 28.2347 28.4841 27.7518C28.5454 27.2689 28.4285 26.7802 28.1553 26.3773C27.8821 25.9744 27.4713 25.685 27 25.5633V23.6644L27.4942 23.9375C27.5763 23.9829 27.6696 24.0043 27.7633 23.9992C27.857 23.9941 27.9473 23.9627 28.024 23.9087C28.1008 23.8546 28.1607 23.7801 28.1971 23.6936C28.2334 23.607 28.2447 23.5121 28.2296 23.4194L28.0341 22.2213L28.8579 21.3769C28.9222 21.3111 28.9671 21.2289 28.9877 21.1392C29.0082 21.0496 29.0037 20.956 28.9745 20.8688C28.9453 20.7816 28.8926 20.7041 28.8222 20.6449C28.7518 20.5857 28.6664 20.547 28.5755 20.5332L27.4573 20.3625L27 19.3884V17.4368C27.4293 17.3259 27.8097 17.0754 28.0812 16.7249C28.3527 16.3743 28.5001 15.9434 28.5001 15.5C28.5001 15.0566 28.3527 14.6257 28.0812 14.2751C27.8097 13.9246 27.4293 13.6741 27 13.5632V11.6644L27.4942 11.9375C27.5763 11.9829 27.6696 12.0043 27.7633 11.9992C27.857 11.9941 27.9473 11.9627 28.024 11.9087C28.1008 11.8546 28.1607 11.7801 28.1971 11.6936C28.2334 11.607 28.2447 11.5121 28.2296 11.4194L28.0341 10.2213L28.8579 9.37694C28.9222 9.31115 28.9671 9.2289 28.9877 9.13925C29.0082 9.0496 29.0037 8.95601 28.9745 8.86879C28.9453 8.78156 28.8926 8.70409 28.8222 8.64488C28.7518 8.58567 28.6664 8.54702 28.5755 8.53319L27.4573 8.3625L27 7.38837V5H30.5C30.6326 5 30.7598 4.94732 30.8536 4.85355C30.9473 4.75979 31 4.63261 31 4.5V2.5C31 2.36739 30.9473 2.24021 30.8536 2.14645C30.7598 2.05268 30.6326 2 30.5 2ZM6.4625 27.375L6.142 27.7035C6.08735 27.7595 6.04662 27.8276 6.02308 27.9022C5.99953 27.9768 5.99383 28.056 6.00644 28.1332L6.07669 28.5644L5.74181 28.3793C5.66776 28.3384 5.58452 28.3169 5.49991 28.3169C5.41529 28.3169 5.33206 28.3384 5.258 28.3793L4.92306 28.5645L4.99337 28.1332C5.00598 28.056 5.00028 27.9769 4.97674 27.9023C4.95319 27.8276 4.91246 27.7596 4.85781 27.7036L4.5375 27.375L4.95756 27.3109C5.03873 27.2985 5.1156 27.2663 5.18137 27.2171C5.24714 27.168 5.2998 27.1034 5.33469 27.0291L5.5 26.6768L5.66538 27.0292C5.70027 27.1035 5.75294 27.1681 5.81872 27.2173C5.88451 27.2664 5.96138 27.2986 6.04256 27.311L6.4625 27.375ZM6.5 21.5C6.5 21.6978 6.44135 21.8911 6.33147 22.0556C6.22159 22.22 6.06541 22.3482 5.88268 22.4239C5.69996 22.4996 5.49889 22.5194 5.30491 22.4808C5.11093 22.4422 4.93275 22.347 4.79289 22.2071C4.65304 22.0673 4.5578 21.8891 4.51921 21.6951C4.48063 21.5011 4.50043 21.3 4.57612 21.1173C4.65181 20.9346 4.77998 20.7784 4.94443 20.6685C5.10888 20.5586 5.30222 20.5 5.5 20.5C5.76513 20.5003 6.01931 20.6058 6.20678 20.7932C6.39425 20.9807 6.4997 21.2349 6.5 21.5ZM6.4625 15.375L6.142 15.7035C6.08735 15.7595 6.04662 15.8276 6.02308 15.9022C5.99953 15.9768 5.99383 16.056 6.00644 16.1332L6.07669 16.5644L5.74181 16.3793C5.66776 16.3384 5.58452 16.3169 5.49991 16.3169C5.41529 16.3169 5.33206 16.3384 5.258 16.3793L4.92306 16.5645L4.99337 16.1332C5.00598 16.056 5.00028 15.9769 4.97674 15.9023C4.95319 15.8276 4.91246 15.7596 4.85781 15.7036L4.5375 15.375L4.95756 15.3109C5.03873 15.2985 5.1156 15.2663 5.18137 15.2171C5.24714 15.168 5.2998 15.1034 5.33469 15.0291L5.5 14.6768L5.66538 15.0292C5.70027 15.1035 5.75294 15.1681 5.81872 15.2173C5.88451 15.2664 5.96138 15.2986 6.04256 15.311L6.4625 15.375ZM6.5 9.5C6.5 9.69778 6.44135 9.89112 6.33147 10.0556C6.22159 10.22 6.06541 10.3482 5.88268 10.4239C5.69996 10.4996 5.49889 10.5194 5.30491 10.4808C5.11093 10.4422 4.93275 10.347 4.79289 10.2071C4.65304 10.0673 4.5578 9.88907 4.51921 9.69509C4.48063 9.50111 4.50043 9.30004 4.57612 9.11732C4.65181 8.93459 4.77998 8.77841 4.94443 8.66853C5.10888 8.55865 5.30222 8.5 5.5 8.5C5.76513 8.5003 6.01931 8.60575 6.20678 8.79322C6.39425 8.98069 6.4997 9.23487 6.5 9.5ZM13.5 27.5C13.5 27.6978 13.4414 27.8911 13.3315 28.0556C13.2216 28.22 13.0654 28.3482 12.8827 28.4239C12.7 28.4996 12.4989 28.5194 12.3049 28.4808C12.1109 28.4422 11.9327 28.347 11.7929 28.2071C11.653 28.0673 11.5578 27.8891 11.5192 27.6951C11.4806 27.5011 11.5004 27.3 11.5761 27.1173C11.6518 26.9346 11.78 26.7784 11.9444 26.6685C12.1089 26.5586 12.3022 26.5 12.5 26.5C12.7651 26.5003 13.0193 26.6058 13.2068 26.7932C13.3942 26.9807 13.4997 27.2349 13.5 27.5ZM13.4625 21.375L13.142 21.7035C13.0874 21.7595 13.0466 21.8276 13.0231 21.9022C12.9995 21.9768 12.9938 22.056 13.0064 22.1332L13.0767 22.5644L12.7418 22.3793C12.6678 22.3384 12.5845 22.3169 12.4999 22.3169C12.4153 22.3169 12.3321 22.3384 12.258 22.3793L11.9231 22.5645L11.9934 22.1332C12.006 22.056 12.0003 21.9769 11.9767 21.9023C11.9532 21.8276 11.9125 21.7596 11.8578 21.7036L11.5375 21.375L11.9576 21.3109C12.0387 21.2985 12.1156 21.2663 12.1814 21.2171C12.2471 21.168 12.2998 21.1034 12.3347 21.0291L12.5 20.6768L12.6654 21.0292C12.7003 21.1035 12.7529 21.1681 12.8187 21.2173C12.8845 21.2664 12.9614 21.2986 13.0426 21.311L13.4625 21.375ZM13.5 15.5C13.5 15.6978 13.4414 15.8911 13.3315 16.0556C13.2216 16.22 13.0654 16.3482 12.8827 16.4239C12.7 16.4996 12.4989 16.5194 12.3049 16.4808C12.1109 16.4422 11.9327 16.347 11.7929 16.2071C11.653 16.0673 11.5578 15.8891 11.5192 15.6951C11.4806 15.5011 11.5004 15.3 11.5761 15.1173C11.6518 14.9346 11.78 14.7784 11.9444 14.6685C12.1089 14.5586 12.3022 14.5 12.5 14.5C12.7651 14.5003 13.0193 14.6058 13.2068 14.7932C13.3942 14.9807 13.4997 15.2349 13.5 15.5ZM13.4625 9.375L13.142 9.7035C13.0874 9.75952 13.0466 9.82758 13.0231 9.90221C12.9995 9.97684 12.9938 10.056 13.0064 10.1332L13.0767 10.5641L12.7418 10.379C12.6678 10.3381 12.5845 10.3166 12.4999 10.3166C12.4153 10.3166 12.3321 10.3381 12.258 10.379L11.9231 10.5642L11.9934 10.1333C12.006 10.056 12.0003 9.9769 11.9767 9.90227C11.9532 9.82764 11.9125 9.75958 11.8578 9.70356L11.5375 9.375L11.9576 9.31087C12.0387 9.29848 12.1156 9.26628 12.1814 9.21713C12.2471 9.16798 12.2998 9.10339 12.3347 9.02906L12.5 8.67675L12.6654 9.02919C12.7003 9.10352 12.7529 9.16812 12.8187 9.21727C12.8845 9.26642 12.9614 9.29861 13.0426 9.311L13.4625 9.375ZM20.4625 27.375L20.142 27.7035C20.0874 27.7595 20.0466 27.8276 20.0231 27.9022C19.9995 27.9768 19.9938 28.056 20.0064 28.1332L20.0767 28.5644L19.7418 28.3793C19.6678 28.3384 19.5845 28.3169 19.4999 28.3169C19.4153 28.3169 19.3321 28.3384 19.258 28.3793L18.9231 28.5645L18.9934 28.1332C19.006 28.056 19.0003 27.9769 18.9767 27.9023C18.9532 27.8276 18.9125 27.7596 18.8578 27.7036L18.5375 27.375L18.9576 27.3109C19.0387 27.2985 19.1156 27.2663 19.1814 27.2171C19.2471 27.168 19.2998 27.1034 19.3347 27.0291L19.5 26.6768L19.6654 27.0292C19.7003 27.1035 19.7529 27.1681 19.8187 27.2173C19.8845 27.2664 19.9614 27.2986 20.0426 27.311L20.4625 27.375ZM20.5 21.5C20.5 21.6978 20.4414 21.8911 20.3315 22.0556C20.2216 22.22 20.0654 22.3482 19.8827 22.4239C19.7 22.4996 19.4989 22.5194 19.3049 22.4808C19.1109 22.4422 18.9327 22.347 18.7929 22.2071C18.653 22.0673 18.5578 21.8891 18.5192 21.6951C18.4806 21.5011 18.5004 21.3 18.5761 21.1173C18.6518 20.9346 18.78 20.7784 18.9444 20.6685C19.1089 20.5586 19.3022 20.5 19.5 20.5C19.7651 20.5003 20.0193 20.6058 20.2068 20.7932C20.3942 20.9807 20.4997 21.2349 20.5 21.5ZM20.4625 15.375L20.142 15.7035C20.0874 15.7595 20.0466 15.8276 20.0231 15.9022C19.9995 15.9768 19.9938 16.056 20.0064 16.1332L20.0767 16.5644L19.7418 16.3793C19.6678 16.3384 19.5845 16.3169 19.4999 16.3169C19.4153 16.3169 19.3321 16.3384 19.258 16.3793L18.9231 16.5645L18.9934 16.1332C19.006 16.056 19.0003 15.9769 18.9767 15.9023C18.9532 15.8276 18.9125 15.7596 18.8578 15.7036L18.5375 15.375L18.9576 15.3109C19.0387 15.2985 19.1156 15.2663 19.1814 15.2171C19.2471 15.168 19.2998 15.1034 19.3347 15.0291L19.5 14.6768L19.6654 15.0292C19.7003 15.1035 19.7529 15.1681 19.8187 15.2173C19.8845 15.2664 19.9614 15.2986 20.0426 15.311L20.4625 15.375ZM20.5 9.5C20.5 9.69778 20.4414 9.89112 20.3315 10.0556C20.2216 10.22 20.0654 10.3482 19.8827 10.4239C19.7 10.4996 19.4989 10.5194 19.3049 10.4808C19.1109 10.4422 18.9327 10.347 18.7929 10.2071C18.653 10.0673 18.5578 9.88907 18.5192 9.69509C18.4806 9.50111 18.5004 9.30004 18.5761 9.11732C18.6518 8.93459 18.78 8.77841 18.9444 8.66853C19.1089 8.55865 19.3022 8.5 19.5 8.5C19.7651 8.5003 20.0193 8.60575 20.2068 8.79322C20.3942 8.98069 20.4997 9.23487 20.5 9.5ZM27.5 27.5C27.5 27.6978 27.4414 27.8911 27.3315 28.0556C27.2216 28.22 27.0654 28.3482 26.8827 28.4239C26.7 28.4996 26.4989 28.5194 26.3049 28.4808C26.1109 28.4422 25.9327 28.347 25.7929 28.2071C25.653 28.0673 25.5578 27.8891 25.5192 27.6951C25.4806 27.5011 25.5004 27.3 25.5761 27.1173C25.6518 26.9346 25.78 26.7784 25.9444 26.6685C26.1089 26.5586 26.3022 26.5 26.5 26.5C26.7651 26.5003 27.0193 26.6058 27.2068 26.7932C27.3942 26.9807 27.4997 27.2349 27.5 27.5ZM27.4625 21.375L27.142 21.7035C27.0874 21.7595 27.0466 21.8276 27.0231 21.9022C26.9995 21.9768 26.9938 22.056 27.0064 22.1332L27.0767 22.5644L26.7418 22.3793C26.6678 22.3384 26.5845 22.3169 26.4999 22.3169C26.4153 22.3169 26.3321 22.3384 26.258 22.3793L25.9231 22.5645L25.9934 22.1332C26.006 22.056 26.0003 21.9769 25.9767 21.9023C25.9532 21.8276 25.9125 21.7596 25.8578 21.7036L25.5375 21.375L25.9576 21.3109C26.0387 21.2985 26.1156 21.2663 26.1814 21.2171C26.2471 21.168 26.2998 21.1034 26.3347 21.0291L26.5 20.6768L26.6654 21.0292C26.7003 21.1035 26.7529 21.1681 26.8187 21.2173C26.8845 21.2664 26.9614 21.2986 27.0426 21.311L27.4625 21.375ZM27.5 15.5C27.5 15.6978 27.4414 15.8911 27.3315 16.0556C27.2216 16.22 27.0654 16.3482 26.8827 16.4239C26.7 16.4996 26.4989 16.5194 26.3049 16.4808C26.1109 16.4422 25.9327 16.347 25.7929 16.2071C25.653 16.0673 25.5578 15.8891 25.5192 15.6951C25.4806 15.5011 25.5004 15.3 25.5761 15.1173C25.6518 14.9346 25.78 14.7784 25.9444 14.6685C26.1089 14.5586 26.3022 14.5 26.5 14.5C26.7651 14.5003 27.0193 14.6058 27.2068 14.7932C27.3942 14.9807 27.4997 15.2349 27.5 15.5ZM27.4625 9.375L27.142 9.7035C27.0874 9.75952 27.0466 9.82758 27.0231 9.90221C26.9995 9.97684 26.9938 10.056 27.0064 10.1332L27.0767 10.5641L26.7418 10.379C26.6678 10.3381 26.5845 10.3166 26.4999 10.3166C26.4153 10.3166 26.3321 10.3381 26.258 10.379L25.9231 10.5642L25.9934 10.1333C26.006 10.056 26.0003 9.9769 25.9767 9.90227C25.9532 9.82764 25.9125 9.75958 25.8578 9.70356L25.5375 9.375L25.9576 9.31087C26.0387 9.29848 26.1156 9.26628 26.1814 9.21713C26.2471 9.16798 26.2998 9.10339 26.3347 9.02906L26.5 8.67675L26.6654 9.02919C26.7003 9.10352 26.7529 9.16812 26.8187 9.21727C26.8845 9.26642 26.9614 9.29861 27.0426 9.311L27.4625 9.375ZM30 4H2V3H30V4Z" fill="#161616"/>
</svg>
