<svg width="32" height="32" viewBox="0 0 32 32" fill="none" xmlns="http://www.w3.org/2000/svg">
<path d="M24.6562 0H7.34349C6.99143 0 6.70605 0.285375 6.70605 0.637438V31.3626C6.70605 31.7146 6.99143 32 7.34349 32H24.6562C25.0083 32 25.2937 31.7146 25.2937 31.3626V0.637438C25.2937 0.285375 25.0082 0 24.6562 0ZM24.0188 30.7251H7.98093V1.27488H24.0188V30.7251Z" fill="#161616"/>
<path d="M22.5018 2.29492H9.49779C9.14573 2.29492 8.86035 2.5803 8.86035 2.93236V29.0678C8.86035 29.4199 9.14573 29.7052 9.49779 29.7052H22.5018C22.8539 29.7052 23.1392 29.4199 23.1392 29.0678V2.93236C23.1392 2.5803 22.8538 2.29492 22.5018 2.29492ZM21.8644 28.4304H10.1352V3.56986H21.8643V28.4304H21.8644Z" fill="#161616"/>
<path d="M18.8047 13.7051C17.6448 13.7051 16.7012 14.6488 16.7012 15.8086C16.7012 16.9685 17.6449 17.9122 18.8047 17.9122C19.9647 17.9122 20.9083 16.9685 20.9083 15.8086C20.9083 14.6488 19.9646 13.7051 18.8047 13.7051ZM18.8047 16.6373C18.3478 16.6373 17.976 16.2656 17.976 15.8086C17.976 15.3517 18.3478 14.98 18.8047 14.98C19.2617 14.98 19.6334 15.3517 19.6334 15.8086C19.6334 16.2656 19.2616 16.6373 18.8047 16.6373Z" fill="#161616"/>
<path d="M15.3622 26.5176H14.8523C14.5002 26.5176 14.2148 26.803 14.2148 27.155C14.2148 27.5071 14.5002 27.7925 14.8523 27.7925H15.3622C15.7143 27.7925 15.9997 27.5071 15.9997 27.155C15.9997 26.803 15.7143 26.5176 15.3622 26.5176Z" fill="#161616"/>
<path d="M20.3988 26.5176H17.4665C17.1145 26.5176 16.8291 26.803 16.8291 27.155C16.8291 27.5071 17.1145 27.7925 17.4665 27.7925H20.3988C20.7509 27.7925 21.0362 27.5071 21.0362 27.155C21.0362 26.803 20.7508 26.5176 20.3988 26.5176Z" fill="#161616"/>
</svg>
