<svg width="51" height="50" viewBox="0 0 51 50" fill="none" xmlns="http://www.w3.org/2000/svg">
<path fill-rule="evenodd" clip-rule="evenodd" d="M25.0002 9.92859C24.5979 9.92859 24.2717 10.2548 24.2717 10.6572V23.7714H11.1573C10.7549 23.7714 10.4287 24.0976 10.4287 24.5C10.4287 24.9024 10.7549 25.2285 11.1573 25.2285H24.2717V38.3429C24.2717 38.7453 24.5979 39.0714 25.0002 39.0714C25.4026 39.0714 25.7288 38.7453 25.7288 38.3429V25.2285H38.843C39.2454 25.2285 39.5716 24.9024 39.5716 24.5C39.5716 24.0976 39.2454 23.7714 38.843 23.7714H25.7288V10.6572C25.7288 10.2548 25.4026 9.92859 25.0002 9.92859Z" fill="black"/>
</svg>
