<svg width="32" height="32" viewBox="0 0 32 32" fill="none" xmlns="http://www.w3.org/2000/svg">
<g clip-path="url(#clip0_740_15006)">
<path d="M30 16.5H25.205L23.5 14.795V11.955C24.1985 11.8369 24.8327 11.4755 25.2903 10.9346C25.7479 10.3938 25.9993 9.70844 26 9V3.5C26 3.36739 25.9473 3.24021 25.8536 3.14645C25.7598 3.05268 25.6326 3 25.5 3H20.5C20.3674 3 20.2402 3.05268 20.1464 3.14645C20.0527 3.24021 20 3.36739 20 3.5V9C20.0007 9.70844 20.2521 10.3938 20.7097 10.9346C21.1673 11.4755 21.8015 11.8369 22.5 11.955V14.795L20.795 16.5H18.205L16.5 14.795V11.955C17.1985 11.8369 17.8327 11.4755 18.2903 10.9346C18.7479 10.3938 18.9993 9.70844 19 9V3.5C19 3.36739 18.9473 3.24021 18.8536 3.14645C18.7598 3.05268 18.6326 3 18.5 3H13.5C13.3674 3 13.2402 3.05268 13.1464 3.14645C13.0527 3.24021 13 3.36739 13 3.5V9C13.0007 9.70844 13.2521 10.3938 13.7097 10.9346C14.1673 11.4755 14.8015 11.8369 15.5 11.955V14.795L13.795 16.5H11.205L9.5 14.795V11.955C10.1985 11.8369 10.8327 11.4755 11.2903 10.9346C11.7479 10.3938 11.9993 9.70844 12 9V3.5C12 3.36739 11.9473 3.24021 11.8536 3.14645C11.7598 3.05268 11.6326 3 11.5 3H6.5C6.36739 3 6.24021 3.05268 6.14645 3.14645C6.05268 3.24021 6 3.36739 6 3.5V9C6.00072 9.70844 6.25212 10.3938 6.70969 10.9346C7.16726 11.4755 7.80147 11.8369 8.5 11.955V14.795L6.795 16.5H2C1.86739 16.5 1.74021 16.5527 1.64645 16.6464C1.55268 16.7402 1.5 16.8674 1.5 17C1.5 17.9283 1.86875 18.8185 2.52513 19.4749C3.1815 20.1313 4.07174 20.5 5 20.5H8.215C7.3364 20.5031 6.47411 20.7376 5.715 21.18L0.75 24.07C0.674431 24.1136 0.611595 24.1763 0.567737 24.2517C0.523879 24.3271 0.500527 24.4127 0.5 24.5V31C0.5 31.1326 0.552678 31.2598 0.646447 31.3536C0.740215 31.4473 0.867392 31.5 1 31.5C1.09581 31.4998 1.18952 31.472 1.27 31.42L6.645 28H14.5C14.6192 28 14.7344 27.9575 14.825 27.88L20.825 22.79C21.035 22.6164 21.2043 22.3988 21.321 22.1526C21.4376 21.9063 21.4987 21.6375 21.5 21.365C21.4985 21.0624 21.4211 20.765 21.275 20.5H27C27.9283 20.5 28.8185 20.1313 29.4749 19.4749C30.1313 18.8185 30.5 17.9283 30.5 17C30.5 16.8674 30.4473 16.7402 30.3536 16.6464C30.2598 16.5527 30.1326 16.5 30 16.5ZM25 4V6H21V4H25ZM21 9V7H25V9C25 9.53043 24.7893 10.0391 24.4142 10.4142C24.0391 10.7893 23.5304 11 23 11C22.4696 11 21.9609 10.7893 21.5858 10.4142C21.2107 10.0391 21 9.53043 21 9ZM23 15.705L23.795 16.5H22.205L23 15.705ZM18 4V6H14V4H18ZM14 9V7H18V9C18 9.53043 17.7893 10.0391 17.4142 10.4142C17.0391 10.7893 16.5304 11 16 11C15.4696 11 14.9609 10.7893 14.5858 10.4142C14.2107 10.0391 14 9.53043 14 9ZM16 15.705L16.795 16.5H15.205L16 15.705ZM11 4V6H7V4H11ZM7 9V7H11V9C11 9.53043 10.7893 10.0391 10.4142 10.4142C10.0391 10.7893 9.53043 11 9 11C8.46957 11 7.96086 10.7893 7.58579 10.4142C7.21071 10.0391 7 9.53043 7 9ZM9 15.705L9.795 16.5H8.205L9 15.705ZM20.5 21.365C20.5008 21.4907 20.4739 21.615 20.4212 21.729C20.3684 21.8431 20.2912 21.9442 20.195 22.025L14.315 27H6.5C6.40419 27.0002 6.31048 27.028 6.23 27.08L1.5 30.09V24.785L6.2 22.045C6.80719 21.6907 7.49703 21.5028 8.2 21.5H8.325C8.71467 21.499 9.1023 21.5563 9.475 21.67L13.025 22.735C13.1615 22.7714 13.2821 22.852 13.368 22.9641C13.454 23.0763 13.5004 23.2137 13.5 23.355C13.5 23.5261 13.432 23.6901 13.3111 23.8111C13.1901 23.932 13.0261 24 12.855 24H9.5V25H13.5C13.6151 24.9991 13.7264 24.9585 13.815 24.885L18.94 20.695C19.0985 20.5672 19.2964 20.4983 19.5 20.5H19.645C19.8723 20.5039 20.089 20.5966 20.2488 20.7583C20.4086 20.9199 20.4987 21.1377 20.5 21.365ZM8.34 20.5H17.6L14.5 23.055C14.4446 22.7565 14.308 22.4791 14.1051 22.2532C13.9022 22.0274 13.6409 21.8619 13.35 21.775L9.8 20.71C9.32639 20.5682 8.83437 20.4974 8.34 20.5ZM27 19.5H5C4.42367 19.5001 3.86501 19.3011 3.41855 18.9367C2.97209 18.5722 2.66527 18.0647 2.55 17.5H29.45C29.3347 18.0647 29.0279 18.5722 28.5815 18.9367C28.135 19.3011 27.5763 19.5001 27 19.5Z" fill="#161616"/>
<path d="M31.225 2.95454C30.9739 2.82892 30.7525 2.65106 30.5757 2.43289C30.3989 2.21471 30.2708 1.96127 30.2 1.68954L30 0.874541C29.9729 0.766428 29.9105 0.670467 29.8226 0.601901C29.7347 0.533334 29.6265 0.496094 29.515 0.496094C29.4036 0.496094 29.2953 0.533334 29.2074 0.601901C29.1195 0.670467 29.0571 0.766428 29.03 0.874541L28.8 1.69454C28.7268 1.96457 28.5977 2.21624 28.4212 2.43328C28.2446 2.65032 28.0245 2.8279 27.775 2.95454C27.6926 2.99609 27.6232 3.05966 27.5747 3.13821C27.5261 3.21675 27.5003 3.30721 27.5 3.39954C27.4994 3.49272 27.5248 3.58423 27.5734 3.66375C27.622 3.74326 27.6918 3.80761 27.775 3.84954L27.835 3.87954C28.0719 3.99723 28.2825 4.16152 28.4543 4.36256C28.6262 4.5636 28.7556 4.79726 28.835 5.04954L29.025 5.64954C29.0579 5.74958 29.1215 5.83668 29.2068 5.89842C29.2921 5.96017 29.3947 5.99342 29.5 5.99342C29.6053 5.99342 29.7079 5.96017 29.7932 5.89842C29.8785 5.83668 29.9421 5.74958 29.975 5.64954L30.165 5.04954C30.2456 4.79723 30.3755 4.56343 30.5471 4.36173C30.7188 4.16002 30.9288 3.99442 31.165 3.87454L31.225 3.84454C31.3069 3.80258 31.3756 3.73883 31.4236 3.66032C31.4716 3.5818 31.497 3.49156 31.497 3.39954C31.497 3.30752 31.4716 3.21728 31.4236 3.13876C31.3756 3.06025 31.3069 2.9965 31.225 2.95454ZM29.5 4.10954C29.336 3.84026 29.132 3.59749 28.895 3.38954C29.1371 3.16738 29.3414 2.90731 29.5 2.61954C29.6586 2.90731 29.8629 3.16738 30.105 3.38954C29.868 3.59749 29.664 3.84026 29.5 4.10954Z" fill="#161616"/>
<path d="M0.775012 5.85L0.835012 5.88C1.07185 5.99769 1.2825 6.16198 1.45433 6.36302C1.62616 6.56406 1.75564 6.79772 1.83501 7.05L2.02501 7.65C2.05789 7.75003 2.12151 7.83713 2.20681 7.89888C2.2921 7.96063 2.39471 7.99388 2.50001 7.99388C2.60531 7.99388 2.70792 7.96063 2.79322 7.89888C2.87851 7.83713 2.94213 7.75003 2.97501 7.65L3.16501 7.05C3.24559 6.79769 3.37548 6.56389 3.54714 6.36219C3.71881 6.16048 3.92883 5.99488 4.16501 5.875L4.22501 5.845C4.30691 5.80304 4.37565 5.73929 4.42364 5.66078C4.47164 5.58226 4.49703 5.49202 4.49703 5.4C4.49703 5.30798 4.47164 5.21774 4.42364 5.13922C4.37565 5.06071 4.30691 4.99696 4.22501 4.955C3.97853 4.82661 3.762 4.64752 3.58965 4.4295C3.4173 4.21148 3.29304 3.95946 3.22501 3.69L3.00001 2.875C3.00001 2.74239 2.94733 2.61521 2.85357 2.52145C2.7598 2.42768 2.63262 2.375 2.50001 2.375C2.3674 2.375 2.24023 2.42768 2.14646 2.52145C2.05269 2.61521 2.00001 2.74239 2.00001 2.875L1.80001 3.695C1.72963 3.9628 1.60441 4.21308 1.43227 4.42997C1.26014 4.64686 1.04484 4.82564 0.800012 4.955C0.71288 4.99299 0.638382 5.05502 0.585248 5.13384C0.532114 5.21265 0.502547 5.30498 0.500012 5.4C0.499364 5.49318 0.524768 5.58469 0.573359 5.6642C0.62195 5.74372 0.691794 5.80807 0.775012 5.85ZM2.50001 4.62C2.6586 4.90777 2.86293 5.16783 3.10501 5.39C2.86801 5.59794 2.66402 5.84072 2.50001 6.11C2.33601 5.84072 2.13201 5.59794 1.89501 5.39C2.13709 5.16783 2.34143 4.90777 2.50001 4.62Z" fill="#161616"/>
</g>
<defs>
<clipPath id="clip0_740_15006">
<rect width="32" height="32" fill="white"/>
</clipPath>
</defs>
</svg>
