<svg width="32" height="32" viewBox="0 0 32 32" fill="none" xmlns="http://www.w3.org/2000/svg">
<g clip-path="url(#clip0_740_14944)">
<path d="M23.2304 0H19.1404C13.1437 0 11.2167 1.94425 8.54968 4.63506C8.12074 5.06788 7.8698 5.63044 7.83262 6.23313H3.71543C2.36618 6.23313 1.26855 7.33081 1.26855 8.68V9.6175C1.26855 9.87638 1.47837 10.0863 1.7373 10.0863C1.99624 10.0863 2.20605 9.87638 2.20605 9.6175V8.68C2.20605 7.84775 2.88318 7.17063 3.71543 7.17063H7.82718V18.135H3.71543C2.88318 18.135 2.20605 17.4582 2.20605 16.6262V11.4925C2.20605 11.2336 1.99624 11.0238 1.7373 11.0238C1.47837 11.0238 1.26855 11.2336 1.26855 11.4925V16.6262C1.26855 17.9751 2.36624 19.0725 3.71543 19.0725H3.8718V21.8532C2.78862 22.119 1.98249 23.0978 1.98249 24.2618C1.98249 25.4258 2.78868 26.4046 3.8718 26.6704V31.5312C3.8718 31.7901 4.08162 32 4.34055 32H6.47437C6.7333 32 6.94312 31.7901 6.94312 31.5312V19.0725H7.82724V19.1065C7.82724 19.7679 8.0838 20.3911 8.54974 20.8611C11.2169 23.5519 13.1438 25.4962 19.1405 25.4962H23.2304C23.4894 25.4962 23.6992 25.2863 23.6992 25.0274V23.5893C23.6992 23.3304 23.4894 23.1206 23.2304 23.1206C22.9715 23.1206 22.7617 23.3304 22.7617 23.5893V24.5587H19.6092V0.9375H22.7617V21.7144C22.7617 21.9732 22.9715 22.1831 23.2304 22.1831C23.4894 22.1831 23.6992 21.9732 23.6992 21.7144V0.46875C23.6991 0.209875 23.4893 0 23.2304 0ZM2.91993 24.2619C2.91993 23.4111 3.61199 22.719 4.46274 22.719C5.31349 22.719 6.00562 23.4111 6.00562 24.2619C6.00562 25.1126 5.31349 25.8047 4.46274 25.8047C3.61199 25.8047 2.91993 25.1126 2.91993 24.2619ZM4.8093 31.0625V26.7174C5.25743 26.6545 5.6673 26.4714 6.00562 26.2018V31.0625H4.8093ZM6.00555 22.3219C5.66724 22.0522 5.25743 21.8692 4.80924 21.8062V19.0725H6.00555V22.3219ZM9.21555 20.2012C8.9248 19.9079 8.76468 19.5191 8.76468 19.1065V6.38969C8.76468 5.97713 8.9248 5.58838 9.21555 5.295C11.7423 2.74563 13.4364 1.037 18.6717 0.941813V24.5543C13.4364 24.4592 11.7423 22.7506 9.21555 20.2012Z" fill="#161616"/>
<path d="M30.2634 12.2793H26.751C26.492 12.2793 26.2822 12.4892 26.2822 12.748C26.2822 13.0069 26.492 13.2168 26.751 13.2168H30.2634C30.5224 13.2168 30.7322 13.0069 30.7322 12.748C30.7322 12.4892 30.5224 12.2793 30.2634 12.2793Z" fill="#161616"/>
<path d="M26.751 8.87139C26.7945 8.87139 26.839 8.86526 26.8829 8.85233L30.0828 7.91482C30.3313 7.84201 30.4737 7.58164 30.4009 7.3332C30.3281 7.08482 30.0678 6.9422 29.8193 7.0152L26.6193 7.9527C26.3708 8.02551 26.2285 8.28589 26.3013 8.53433C26.3612 8.73876 26.5481 8.87139 26.751 8.87139Z" fill="#161616"/>
<path d="M26.7514 4.25108C26.8471 4.25108 26.9438 4.22189 27.027 4.16121L29.6019 2.28621C29.8113 2.13383 29.8573 1.84064 29.7049 1.63133C29.5525 1.42202 29.2592 1.37596 29.05 1.52833L26.4751 3.40333C26.2658 3.55571 26.2197 3.84889 26.3721 4.05821C26.4639 4.18421 26.6067 4.25108 26.7514 4.25108Z" fill="#161616"/>
<path d="M30.0828 17.5806L26.8829 16.6431C26.6344 16.5702 26.374 16.7127 26.3013 16.9611C26.2285 17.2095 26.3708 17.47 26.6193 17.5427L29.8193 18.4802C29.8633 18.4931 29.9076 18.4993 29.9512 18.4993C30.154 18.4993 30.341 18.3666 30.4008 18.1622C30.4737 17.9138 30.3313 17.6533 30.0828 17.5806Z" fill="#161616"/>
<path d="M29.6019 23.21L27.027 21.335C26.8176 21.1826 26.5245 21.2287 26.3721 21.438C26.2197 21.6473 26.2658 21.9405 26.475 22.0928L29.05 23.9678C29.1333 24.0285 29.2298 24.0577 29.3255 24.0577C29.4703 24.0577 29.6131 23.9908 29.7048 23.8649C29.8572 23.6555 29.8111 23.3623 29.6019 23.21Z" fill="#161616"/>
</g>
<defs>
<clipPath id="clip0_740_14944">
<rect width="32" height="32" fill="white"/>
</clipPath>
</defs>
</svg>
