<svg width="32" height="32" viewBox="0 0 32 32" fill="none" xmlns="http://www.w3.org/2000/svg">
<g clip-path="url(#clip0_740_14926)">
<path d="M30.1174 27.4677C30.1174 25.2104 30.1174 5.98706 30.1174 5.07487C31.2025 4.76744 32 3.76888 32 2.58687C32 1.16044 30.8396 0 29.4131 0H21.7831C21.5242 0 21.3144 0.209875 21.3144 0.46875C21.3144 0.727625 21.5242 0.9375 21.7831 0.9375H29.4131C30.3226 0.9375 31.0625 1.67737 31.0625 2.58687C31.0625 3.496 30.3226 4.23562 29.4131 4.23562C28.5561 4.23594 3.19575 4.24419 2.38794 4.22363C1.56 4.12488 0.9375 3.42387 0.9375 2.58687C0.9375 1.67737 1.67737 0.9375 2.58687 0.9375H19.5956C19.8546 0.9375 20.0644 0.727625 20.0644 0.46875C20.0644 0.209875 19.8546 0 19.5956 0H2.58687C1.16044 0 0 1.16044 0 2.58687C0 3.76344 0.785 4.76819 1.88256 5.07575V27.4677C0.78575 27.8657 0 28.9181 0 30.1506C0 31.1704 0.829563 32 1.84938 32H30.1506C31.1704 32 32 31.1704 32 30.1506C32 28.9181 31.2143 27.8657 30.1174 27.4677ZM26.8386 27.2975C26.7524 25.6544 27.1674 24.0048 28.026 22.5871H29.1799V27.2984C29.04 27.2967 27.9276 27.2978 26.8386 27.2975ZM24.4854 27.2975C24.3993 25.6544 24.8142 24.0048 25.6728 22.5871H26.9498C26.1884 24.0359 25.8235 25.6684 25.9 27.2975H24.4854ZM7.51456 27.2975H6.1C6.1765 25.6684 5.81163 24.0359 5.05025 22.5871H6.32719C7.18581 24.0048 7.60075 25.6544 7.51456 27.2975ZM2.82006 21.6496V18.822C4.49475 18.8221 3.98319 18.8221 7.05775 18.822C7.83738 18.822 8.47163 19.4562 8.47163 20.2358C8.47163 21.0154 7.83738 21.6496 7.05775 21.6496H2.82006ZM2.82006 17.8844V7.02906C3.61969 8.12119 4.90069 9.09925 6.59956 9.89425C6.50838 12.7337 5.66562 15.4847 4.15131 17.8844H2.82006ZM6.56238 17.8844H5.24781C6.59888 15.5696 7.3765 12.9718 7.52044 10.2901C7.99756 10.4784 8.49569 10.6499 9.0115 10.804C8.91906 13.3442 8.05756 15.8375 6.56238 17.8844ZM7.26206 9.16613C4.90038 8.11688 3.35425 6.68087 2.92213 5.16337C3.24294 5.16494 3.67969 5.16625 4.21537 5.16744C9.78281 10.8189 22.203 10.8237 27.7785 5.17362C28.2207 5.1735 28.6535 5.17338 29.0749 5.17319C28.5404 7.02894 26.5065 8.3795 24.7341 9.16781C19.9201 11.3073 12.5014 11.4563 7.26206 9.16613ZM29.1799 17.8844H27.8486C26.3344 15.4847 25.4916 12.7337 25.4004 9.89425C27.0993 9.09919 28.3803 8.12112 29.1799 7.02906V17.8844H29.1799ZM24.4795 10.2902C24.6235 12.9719 25.4011 15.5696 26.7521 17.8844H25.4376C23.9424 15.8376 23.0809 13.3445 22.9884 10.8044C23.5041 10.6503 24.0021 10.4786 24.4795 10.2902ZM24.9422 18.8219H29.1799V21.6496H24.9422C24.1626 21.6496 23.5284 21.0154 23.5284 20.2358C23.5284 19.4562 24.1627 18.8219 24.9422 18.8219ZM26.3939 5.17406C21.121 9.57313 10.8699 9.57106 5.601 5.16994C10.8622 5.17738 21.1224 5.1755 26.3939 5.17406ZM2.82006 22.5871H3.974C4.83262 24.0048 5.24756 25.6544 5.16138 27.2975C4.20194 27.2978 2.95219 27.2968 2.82006 27.2983V22.5871ZM30.1506 31.0625H1.84938C1.34656 31.0625 0.9375 30.6534 0.9375 30.1506C0.9375 29.0944 1.79688 28.235 2.85313 28.235H11.6144C11.8733 28.235 12.0831 28.0252 12.0831 27.7663C12.0831 27.5073 11.8733 27.2975 11.6144 27.2975H8.45319C8.53013 25.6594 8.16094 24.0179 7.391 22.5631C8.53025 22.4007 9.40913 21.4191 9.40913 20.2358C9.40913 19.1445 8.66181 18.2247 7.65219 17.9607C9.01156 15.9194 9.80931 13.5136 9.93888 11.0577C13.7632 12.0111 18.2064 12.0203 22.0612 11.0584C22.1909 13.5141 22.9886 15.9196 24.3479 17.9607C23.3382 18.2247 22.5909 19.1445 22.5909 20.2358C22.5909 21.4191 23.4698 22.4006 24.6091 22.5631C23.8391 24.0178 23.4699 25.6594 23.5468 27.2975H13.8019C13.5429 27.2975 13.3331 27.5073 13.3331 27.7663C13.3331 28.0252 13.5429 28.235 13.8019 28.235H29.1469C30.2031 28.235 31.0625 29.0944 31.0625 30.1506C31.0625 30.6534 30.6534 31.0625 30.1506 31.0625Z" fill="#161616"/>
</g>
<defs>
<clipPath id="clip0_740_14926">
<rect width="32" height="32" fill="white"/>
</clipPath>
</defs>
</svg>
