<svg width="32" height="32" viewBox="0 0 32 32" fill="none" xmlns="http://www.w3.org/2000/svg">
<path d="M14.5116 8.8877H12.3191C11.7953 8.8877 11.3691 9.31382 11.3691 9.83776V12.0302C11.3691 12.5541 11.7953 12.9803 12.3191 12.9803H14.5116C15.0354 12.9803 15.4616 12.5541 15.4616 12.0302V9.83776C15.4616 9.31388 15.0354 8.8877 14.5116 8.8877ZM14.5241 12.0302C14.5241 12.0371 14.5184 12.0427 14.5116 12.0427H12.3191C12.3123 12.0427 12.3067 12.0371 12.3067 12.0302V9.83776C12.3067 9.83088 12.3123 9.82526 12.3191 9.82526H14.5116C14.5184 9.82526 14.5241 9.83082 14.5241 9.83776V12.0302Z" fill="#161616"/>
<path d="M19.6805 8.8877H17.4881C16.9642 8.8877 16.5381 9.31382 16.5381 9.83776V12.0302C16.5381 12.5541 16.9642 12.9803 17.4881 12.9803H19.6805C20.2044 12.9803 20.6305 12.5541 20.6305 12.0302V9.83776C20.6305 9.31388 20.2044 8.8877 19.6805 8.8877ZM19.693 12.0302C19.693 12.0371 19.6873 12.0427 19.6805 12.0427C19.6611 12.0427 17.4756 12.0496 17.4756 12.0302C17.4756 12.0108 17.4688 9.82526 17.4881 9.82526H19.6805C19.6873 9.82526 19.693 9.83082 19.693 9.83776V12.0302Z" fill="#161616"/>
<path d="M14.5116 13.9785H12.3191C11.7953 13.9785 11.3691 14.4047 11.3691 14.9286V17.121C11.3691 17.6449 11.7953 18.0711 12.3191 18.0711H14.5116C15.0354 18.0711 15.4616 17.6449 15.4616 17.121V14.9286C15.4616 14.4047 15.0354 13.9785 14.5116 13.9785ZM14.5116 17.1335H12.3191C12.3123 17.1335 12.3067 17.1279 12.3067 17.121V14.9286C12.3067 14.9217 12.3123 14.9161 12.3191 14.9161H14.5116C14.5184 14.9161 14.5241 14.9217 14.5241 14.9286C14.5241 14.948 14.531 17.1335 14.5116 17.1335Z" fill="#161616"/>
<path d="M19.6805 13.9785H17.4881C16.9642 13.9785 16.5381 14.4047 16.5381 14.9286V17.121C16.5381 17.6449 16.9642 18.0711 17.4881 18.0711H19.6805C20.2044 18.0711 20.6305 17.6449 20.6305 17.121V14.9286C20.6305 14.4047 20.2044 13.9785 19.6805 13.9785ZM19.693 17.1211C19.693 17.1279 19.6873 17.1336 19.6805 17.1336C19.6611 17.1336 17.4756 17.1405 17.4756 17.1211C17.4756 17.1017 17.4688 14.9161 17.4881 14.9161H19.6805C19.6873 14.9161 19.693 14.9218 19.693 14.9286V17.1211Z" fill="#161616"/>
<path d="M31.5313 13.0605C31.7902 13.0605 32 12.8506 32 12.5917V4.96426C31.9999 4.13645 31.3264 3.46289 30.4986 3.46289H1.50131C0.673499 3.46289 0 4.13645 0 4.96426C0 5.70026 0 21.6554 0 22.4068C0 23.2347 0.673499 23.9081 1.50131 23.9081H6.8648C5.93868 24.4667 5.14924 25.2546 4.59124 26.2191C3.99762 27.2452 4.73993 28.5371 5.92686 28.5371C6.47674 28.5371 6.98936 28.2417 7.26461 27.766C7.8738 26.7133 9.00567 26.0592 10.2186 26.0592H21.7812C22.9942 26.0592 24.1262 26.7133 24.7355 27.7662C25.0108 28.2417 25.5234 28.5371 26.0731 28.5371C26.3434 28.5371 26.6106 28.4652 26.8455 28.3293C27.5826 27.9028 27.8352 26.9562 27.4088 26.219C26.8506 25.2546 26.0612 24.4667 25.1351 23.9082H30.4987C31.3265 23.9082 32 23.2347 32 22.4069C32 21.9912 32 15.1972 32 14.7794C32 14.5206 31.7902 14.3107 31.5313 14.3107C31.2723 14.3107 31.0625 14.5206 31.0625 14.7794V20.0452H29.8632V6.08689C29.8632 5.82801 29.6534 5.61814 29.3944 5.61814H17.0938C16.8349 5.61814 16.6251 5.82801 16.6251 6.08689C16.6251 6.34576 16.8349 6.55563 17.0938 6.55563H28.9256V20.045H3.07443V6.55563H14.9062C15.165 6.55563 15.3749 6.34576 15.3749 6.08689C15.3749 5.82801 15.165 5.61814 14.9062 5.61814H2.60568C2.34681 5.61814 2.13693 5.82801 2.13693 6.08689V20.045H0.937561V4.96426C0.937561 4.65339 1.19044 4.40045 1.50137 4.40045H30.4987C30.8096 4.40045 31.0625 4.65333 31.0625 4.96426V12.5917C31.0624 12.8506 31.2723 13.0605 31.5313 13.0605ZM26.5972 26.6887C26.7648 26.9783 26.6656 27.3503 26.376 27.5178C26.2822 27.5721 26.1803 27.5997 26.0731 27.5997C25.8568 27.5997 25.6551 27.4835 25.5469 27.2967C24.7706 25.9552 23.3277 25.1218 21.7812 25.1218H10.2186C8.67211 25.1218 7.22924 25.9552 6.45311 27.2965C6.34486 27.4835 6.14318 27.5997 5.92674 27.5997C5.46268 27.5997 5.1688 27.093 5.40268 26.6887C6.39505 24.9736 8.24042 23.9082 10.2186 23.9082H21.7811C23.7593 23.9082 25.6047 24.9736 26.5972 26.6887ZM29.3943 20.9826H31.0624V22.4068C31.0624 22.7177 30.8096 22.9706 30.4986 22.9706C30.2166 22.9706 2.19537 22.9706 1.50131 22.9706C1.19044 22.9706 0.937498 22.7177 0.937498 22.4068V20.9826C1.22937 20.9826 28.6933 20.9826 29.3943 20.9826Z" fill="#161616"/>
</svg>
