<svg width="32" height="32" viewBox="0 0 32 32" fill="none" xmlns="http://www.w3.org/2000/svg">
<path d="M31.3808 30.9019H30.2799C29.349 27.2409 28.9715 20.789 28.8279 17.1857C28.8158 16.8829 28.5618 16.6473 28.2575 16.6591C27.9545 16.6712 27.7188 16.9266 27.7309 17.2295C27.8728 20.7884 28.2422 27.0991 29.1494 30.9019H19.8636C17.9158 28.6399 16.9943 21.1997 16.6696 15.6818C17.3461 16.3056 18.2497 16.6851 19.2388 16.6851C20.2506 16.6851 21.2018 16.2911 21.9171 15.5758C22.1348 15.3581 22.3227 15.1186 22.4788 14.8623C23.1439 15.9544 24.346 16.6851 25.7156 16.6851C26.7274 16.6851 27.6785 16.2911 28.3939 15.5757C28.4695 15.5001 28.5412 15.4221 28.6135 15.3364C29.1872 14.6557 29.5032 13.7898 29.5032 12.8981V10.373C29.5032 10.1774 29.4005 10.006 29.2464 9.90881L29.2467 9.90837L16.5495 1.9175V0.548937C16.5495 0.24575 16.3038 0 16.0006 0C15.6974 0 15.4517 0.24575 15.4517 0.548937V1.91788L2.75341 9.90831L2.75373 9.90875C2.5996 10.0059 2.49691 10.1773 2.49691 10.3729V12.8981C2.49691 13.7238 2.76848 14.5265 3.2646 15.1823C3.22766 16.6633 2.94685 26.1706 1.74579 30.9019H0.620227C0.317039 30.9019 0.0712891 31.1477 0.0712891 31.4509C0.0712891 31.7541 0.317039 31.9998 0.620227 31.9998H29.8564C29.8569 31.9998 29.8575 31.9999 29.8581 31.9999C29.8587 31.9999 29.8595 31.9998 29.8602 31.9998H31.3807C31.6839 31.9998 31.9297 31.7541 31.9297 31.4509C31.9297 31.1477 31.684 30.9019 31.3808 30.9019ZM3.59473 10.922H8.66054C8.96373 10.922 9.20948 10.6762 9.20948 10.3731C9.20948 10.0699 8.96373 9.82413 8.66054 9.82413H4.94891L16.0009 2.86944L27.0516 9.82413H10.3775C10.0743 9.82413 9.82854 10.0699 9.82854 10.3731C9.82854 10.6762 10.0743 10.922 10.3775 10.922H28.4055V12.8981C28.4055 13.5312 28.1813 14.1459 27.7747 14.6283C27.7228 14.6897 27.6714 14.7458 27.6177 14.7994C27.1097 15.3074 26.4342 15.5872 25.7156 15.5872C24.2328 15.5872 23.0265 14.3809 23.0265 12.8981C23.0265 12.5949 22.7808 12.3492 22.4776 12.3492C22.1744 12.3492 21.9287 12.5949 21.9287 12.8981C21.9287 13.6163 21.6489 14.2914 21.1409 14.7994C20.6329 15.3074 19.9574 15.5872 19.2389 15.5872C17.8072 15.5872 16.6273 14.4689 16.5527 13.0415C16.5374 12.7499 16.2965 12.5212 16.0045 12.5212H15.9957C15.7036 12.5212 15.4627 12.7499 15.4475 13.0415C15.4128 13.7042 15.1343 14.3285 14.6633 14.7995C14.1554 15.3075 13.4799 15.5872 12.7613 15.5872C11.2785 15.5872 10.0722 14.3809 10.0722 12.8982C10.0722 12.595 9.82648 12.3492 9.52329 12.3492C9.2201 12.3492 8.97435 12.595 8.97435 12.8982C8.97435 13.6163 8.6946 14.2915 8.1866 14.7995C7.6786 15.3075 7.0031 15.5872 6.28454 15.5872C5.49516 15.5872 4.74835 15.2422 4.23598 14.6408C3.82254 14.1551 3.59473 13.5362 3.59473 12.8982V10.922ZM2.87654 30.9018C3.91279 26.5634 4.24441 19.0166 4.33604 16.1458C4.91804 16.4952 5.58954 16.685 6.28454 16.685C7.29635 16.685 8.24748 16.291 8.96285 15.5756C9.18054 15.3579 9.36841 15.1184 9.52454 14.8621C10.1897 15.9543 11.3917 16.6849 12.7612 16.6849C13.7227 16.6849 14.629 16.3286 15.3305 15.6794C15.0061 21.1974 14.0847 28.6393 12.1364 30.9018H2.87654ZM13.4755 30.9019C14.8124 28.6741 15.5726 24.5329 16.0029 20.7565C16.0424 21.1039 16.0844 21.4543 16.1295 21.8058C16.6844 26.1338 17.4879 29.1823 18.5235 30.9019H13.4755Z" fill="#161616"/>
</svg>
