<svg width="32" height="32" viewBox="0 0 32 32" fill="none" xmlns="http://www.w3.org/2000/svg">
<g clip-path="url(#clip0_740_14972)">
<path d="M27.1873 0H4.81275C2.15898 0 0 2.15898 0 4.81275V27.1873C0 29.841 2.15898 32 4.81275 32H27.1873C29.841 32 32 29.841 32 27.1873V4.81275C32 2.15898 29.841 0 27.1873 0ZM30.7251 27.1873C30.7251 29.138 29.138 30.7251 27.1873 30.7251H4.81275C2.86196 30.7251 1.2749 29.138 1.2749 27.1873V4.81275C1.2749 2.86196 2.86196 1.2749 4.81275 1.2749H27.1873C29.138 1.2749 30.7251 2.86196 30.7251 4.81275V27.1873Z" fill="#161616"/>
<path d="M26.0712 3.82422H5.9278C4.7679 3.82422 3.82422 4.7679 3.82422 5.9278V26.0712C3.82422 27.2311 4.7679 28.1748 5.9278 28.1748H26.0712C27.2311 28.1748 28.1748 27.2311 28.1748 26.0712V5.9278C28.1748 4.7679 27.2311 3.82422 26.0712 3.82422ZM26.8999 26.0712C26.8999 26.5282 26.5282 26.8999 26.0712 26.8999H5.9278C5.47088 26.8999 5.09912 26.5282 5.09912 26.0712V5.9278C5.09912 5.47088 5.47088 5.09912 5.9278 5.09912H26.0712C26.5282 5.09912 26.8999 5.47088 26.8999 5.9278V26.0712Z" fill="#161616"/>
<path d="M11.022 8.69714C11.1378 8.69714 11.2551 8.66552 11.3605 8.59936C11.9175 8.24933 12.5141 7.9628 13.1335 7.74766C13.466 7.63215 13.642 7.26893 13.5265 6.93631C13.411 6.60375 13.0477 6.42769 12.7151 6.54332C12.0047 6.79008 11.3208 7.11862 10.6822 7.51983C10.384 7.70712 10.2943 8.10062 10.4816 8.39875C10.6027 8.59145 10.81 8.69714 11.022 8.69714Z" fill="#161616"/>
<path d="M16.0002 5.99219C15.6482 5.99219 15.3627 6.27757 15.3627 6.62964C15.3627 6.9817 15.6482 7.26709 16.0002 7.26709C20.8156 7.26709 24.7332 11.1847 24.7332 16.0002C24.7332 20.6012 21.1566 24.3822 16.6376 24.7098V23.8408C16.6376 23.4887 16.3522 23.2033 16.0002 23.2033C15.6482 23.2033 15.3627 23.4887 15.3627 23.8408V24.7098C10.8438 24.3822 7.26709 20.6012 7.26709 16.0002C7.26709 14.7956 7.50753 13.6294 7.98192 12.5338C8.12178 12.2108 7.97326 11.8354 7.65026 11.6956C7.32701 11.5557 6.95187 11.7042 6.81201 12.0273C6.26801 13.2836 5.99219 14.6203 5.99219 16.0002C5.99219 21.5186 10.4817 26.0081 16.0002 26.0081C21.5186 26.0081 26.0081 21.5186 26.0081 16.0002C26.0081 10.4817 21.5186 5.99219 16.0002 5.99219Z" fill="#161616"/>
<path d="M11.8872 17.997C12.9881 17.997 13.8837 17.1014 13.8837 16.0005C13.8837 14.8995 12.9881 14.0039 11.8872 14.0039C10.7863 14.0039 9.89062 14.8995 9.89062 16.0005C9.89062 17.1014 10.7862 17.997 11.8872 17.997ZM11.8872 15.2788C12.2851 15.2788 12.6088 15.6026 12.6088 16.0005C12.6088 16.3984 12.2851 16.7221 11.8872 16.7221C11.4893 16.7221 11.1655 16.3984 11.1655 16.0005C11.1655 15.6026 11.4892 15.2788 11.8872 15.2788Z" fill="#161616"/>
<path d="M22.1093 16.0005C22.1093 14.8995 21.2136 14.0039 20.1127 14.0039C19.0118 14.0039 18.1162 14.8995 18.1162 16.0005C18.1162 17.1014 19.0118 17.997 20.1127 17.997C21.2136 17.997 22.1093 17.1014 22.1093 16.0005ZM19.391 16.0005C19.391 15.6026 19.7147 15.2788 20.1126 15.2788C20.5105 15.2788 20.8343 15.6026 20.8343 16.0005C20.8343 16.3984 20.5105 16.7221 20.1126 16.7221C19.7147 16.7221 19.391 16.3984 19.391 16.0005Z" fill="#161616"/>
</g>
<defs>
<clipPath id="clip0_740_14972">
<rect width="32" height="32" fill="white"/>
</clipPath>
</defs>
</svg>
