<svg width="32" height="32" viewBox="0 0 32 32" fill="none" xmlns="http://www.w3.org/2000/svg">
<path d="M28.9825 6.4C26.8828 6.4 24.91 5.41493 23.5697 3.6976C21.7356 1.3472 18.9767 0 15.9996 0C13.0225 0 10.2636 1.3472 8.43001 3.6976C7.08921 5.41493 5.11641 6.4 3.01668 6.4C2.23534 6.4 1.59961 7.03573 1.59961 7.81707V8C1.59961 8.28587 1.71641 8.5648 1.92014 8.76533C2.12174 8.96427 2.37294 9.06667 2.66628 9.06667C2.66628 13.1397 5.08761 16.6501 8.56174 18.2587L7.20441 30.3707C7.10468 30.7541 7.18201 31.1525 7.41934 31.4725C7.66788 31.808 8.04974 32 8.46681 32H8.98948C9.56814 32 10.0689 31.6283 10.2375 31.0747L10.9377 24.8757L15.9996 21.9483L21.0561 24.8725L21.742 30.9792L21.7617 31.0747C21.9297 31.6283 22.4311 32 23.0097 32H23.5324C23.9495 32 24.3313 31.808 24.5799 31.4731C24.8172 31.1525 24.8945 30.7541 24.7948 30.3712L23.4375 18.2592C26.9111 16.6501 29.3292 13.1397 29.3196 9.06667C29.6268 9.06773 29.8785 8.96053 30.0828 8.75893C30.2871 8.5568 30.3996 8.28747 30.3996 8V7.81707C30.3996 7.03573 29.7639 6.4 28.9825 6.4ZM8.98948 30.9333H8.46681C8.36281 30.9333 8.30254 30.8736 8.27641 30.8373C8.25028 30.8011 8.20974 30.7269 8.24014 30.6272L9.58841 18.6747C9.60708 18.6811 9.62734 18.6848 9.64654 18.6907C9.91481 18.7787 10.1895 18.8523 10.4673 18.9179C10.4908 18.9232 10.5132 18.9317 10.5367 18.9371L9.20441 30.7968C9.16548 30.8784 9.08121 30.9333 8.98948 30.9333ZM11.0871 23.5573L11.5591 19.3803L14.9345 21.3323L11.0871 23.5573ZM13.3777 19.2H18.622L15.9996 20.7163L13.3777 19.2ZM17.0647 21.3323L20.4391 19.3808L20.9079 23.5552L17.0647 21.3323ZM22.4108 18.6752L23.7393 30.5323L23.7591 30.6277C23.7895 30.7275 23.7489 30.8016 23.7228 30.8379C23.6967 30.8741 23.6364 30.9333 23.5324 30.9333H23.0097C22.918 30.9333 22.8343 30.8784 22.7953 30.7973L21.4631 18.9376C21.4871 18.9323 21.5095 18.9237 21.5329 18.9184C21.8103 18.8528 22.0849 18.7797 22.3527 18.6917C22.3719 18.6848 22.3921 18.6811 22.4108 18.6752ZM29.3329 8C29.0519 8.01493 28.7873 8.104 28.5852 8.30293C28.3825 8.50293 28.2663 8.78133 28.2663 9.06667C28.2663 12.8144 25.9804 16.0384 22.7297 17.4176L22.7191 17.4219C22.6529 17.4501 22.5825 17.4699 22.5153 17.4965C22.2711 17.592 22.0236 17.6827 21.766 17.7573C21.7452 17.7637 21.7239 17.7675 21.7025 17.7739C21.4065 17.8576 21.1031 17.9291 20.7927 17.984C20.2743 18.0768 19.7441 18.1333 19.1996 18.1333H12.7996C12.2551 18.1333 11.7249 18.0768 11.2065 17.9845C10.8956 17.9291 10.5927 17.8576 10.2967 17.7744C10.2759 17.7685 10.254 17.7643 10.2332 17.7579C9.97561 17.6832 9.72761 17.5925 9.48388 17.4971C9.41668 17.4704 9.34681 17.4507 9.28014 17.4224L9.26948 17.4181C6.01881 16.0384 3.73294 12.8144 3.73294 9.06667C3.73294 8.77813 3.61988 8.50773 3.41401 8.30507C3.21348 8.10773 2.95001 8 2.68228 8C2.67748 8 2.67161 8 2.66628 8V7.81707C2.66628 7.624 2.82361 7.46667 3.01668 7.46667C5.44708 7.46667 7.72654 6.33173 9.27054 4.3536C10.9004 2.26453 13.3532 1.06667 15.9996 1.06667C18.646 1.06667 21.0988 2.26453 22.7287 4.3536C24.2727 6.33173 26.5521 7.46667 28.9825 7.46667C29.1756 7.46667 29.3329 7.624 29.3329 7.81707V8Z" fill="#161616"/>
<path d="M23.3759 11.8075L22.9865 11.7243C18.7055 10.807 14.3631 10.8065 10.0809 11.7243L9.69054 11.8075C9.02014 11.9515 8.5332 12.5531 8.5332 13.2385V14.0022C8.5332 14.4465 8.73107 14.8609 9.07667 15.1403C9.42227 15.4198 9.86654 15.5259 10.3044 15.4337C14.4377 14.5483 18.6287 14.5483 22.7631 15.4337C22.8655 15.4555 22.9684 15.4662 23.0713 15.4662C23.4031 15.4662 23.7263 15.3537 23.9903 15.1403C24.3353 14.8609 24.5332 14.4465 24.5332 14.0022V13.2385C24.5332 12.5531 24.0468 11.9515 23.3759 11.8075ZM23.4665 14.0022C23.4665 14.167 23.3743 14.2662 23.3193 14.311C23.2644 14.3553 23.1503 14.4257 22.9865 14.3905C20.8452 13.9318 18.6895 13.7019 16.5332 13.7019C14.3775 13.7019 12.2212 13.9318 10.0804 14.3905C9.9172 14.4251 9.80254 14.3553 9.74707 14.311C9.69214 14.2662 9.59987 14.1665 9.59987 14.0022V13.2385C9.59987 13.0523 9.73214 12.8891 9.914 12.8497L10.3039 12.7665C14.4372 11.8811 18.6292 11.8811 22.7625 12.7665L23.1519 12.8497C23.3343 12.8891 23.4665 13.0529 23.4665 13.2385V14.0022Z" fill="#161616"/>
</svg>
