<svg width="32" height="32" viewBox="0 0 32 32" fill="none" xmlns="http://www.w3.org/2000/svg">
<g clip-path="url(#clip0_740_15024)">
<path d="M31.454 16.1444L27.3461 9.97456V5.37125C27.3461 4.21019 26.4016 3.26562 25.2405 3.26562H6.75956C5.59856 3.26562 4.65394 4.21019 4.65394 5.37125V9.97463L0.546061 16.1444C-0.147127 17.1856 -0.18319 18.5538 0.454123 19.6299L1.33356 21.1149L0.915623 22.508C0.741935 23.0868 0.808623 23.6961 1.10337 24.2236C1.39812 24.7512 1.882 25.1274 2.466 25.283L5.91994 26.2033C6.24506 26.2703 6.43781 26.0807 6.49369 25.8709C6.56031 25.6208 6.41162 25.3638 6.16137 25.2972L2.70744 24.3769C2.37087 24.2873 2.09187 24.0704 1.92212 23.7663C1.75219 23.4622 1.71375 23.111 1.81394 22.7774L5.47187 10.5851H10.1301L7.53006 25.5629C7.39312 26.3522 7.61025 27.1564 8.126 27.7694C8.64175 28.3824 9.39694 28.7339 10.1981 28.7339H21.8024C22.6035 28.7339 23.3587 28.3824 23.8746 27.7694C24.1537 27.4377 24.3444 27.0497 24.4399 26.6387L29.5285 25.2829C30.1123 25.1274 30.5961 24.7513 30.8908 24.2239C31.1856 23.6966 31.2524 23.0874 31.0791 22.5088L30.6634 21.1208L31.5462 19.63C32.1832 18.5538 32.1472 17.1856 31.454 16.1444ZM1.7 19.8935L1.261 19.1522C0.806123 18.384 0.831873 17.4073 1.32669 16.6641L3.76987 12.9945L1.7 19.8935ZM5.59162 9.64756V5.37131C5.59162 4.72731 6.11556 4.20338 6.75956 4.20338H25.2406C25.8846 4.20338 26.4085 4.72731 26.4085 5.37131V9.64756H5.59162ZM30.0721 23.7664C29.9021 24.0704 29.6233 24.2872 29.2867 24.3768L24.4837 25.6566C24.4794 25.6254 23.0685 17.4886 23.0685 17.4886C23.0242 17.2334 22.7819 17.0626 22.5263 17.1068C22.2712 17.1511 22.1004 17.3938 22.1446 17.6489L23.5462 25.7233C23.6358 26.2393 23.4938 26.765 23.1566 27.1658C22.8196 27.5664 22.3257 27.7963 21.8021 27.7963H10.1979C9.67419 27.7963 9.18056 27.5665 8.84344 27.1658C8.50625 26.7651 8.36425 26.2394 8.45387 25.7234L11.0817 10.5853H20.9186L21.7938 15.6273C21.8681 16.0889 22.3088 16.0137 22.336 16.009C22.5911 15.9648 22.7619 15.722 22.7177 15.4669L21.8702 10.5853H26.5284L30.1806 22.7778C30.2805 23.1114 30.2419 23.4624 30.0721 23.7664ZM30.7391 19.1522L30.297 19.8987L28.2277 12.9907L30.6734 16.6642C31.1683 17.4073 31.194 18.3839 30.7391 19.1522Z" fill="#161616"/>
</g>
<defs>
<clipPath id="clip0_740_15024">
<rect width="32" height="32" fill="white"/>
</clipPath>
</defs>
</svg>
