<svg width="32" height="31" viewBox="0 0 32 31" fill="none" xmlns="http://www.w3.org/2000/svg">
<path d="M30.5906 0H1.40937C0.63225 0 0 0.631938 0 1.40875V11.2869C0 11.5457 0.209875 11.7556 0.46875 11.7556C0.727625 11.7556 0.9375 11.5457 0.9375 11.2869V1.40875C0.9375 1.14887 1.14919 0.9375 1.40937 0.9375H30.5906C30.8508 0.9375 31.0625 1.14887 31.0625 1.40875V21.4931C31.0625 21.7533 30.8508 21.965 30.5906 21.965H1.40937C1.14919 21.965 0.9375 21.7533 0.9375 21.4931V13.4744C0.9375 13.2155 0.727625 13.0056 0.46875 13.0056C0.209875 13.0056 0 13.2155 0 13.4744V29.7812C0 30.0401 0.209875 30.2499 0.46875 30.2499H2.34925C2.60813 30.2499 2.818 30.0401 2.818 29.7812V22.9025H9.7275V25.4206C9.7275 25.6795 9.93738 25.8894 10.1962 25.8894C10.4551 25.8894 10.665 25.6795 10.665 25.4206V22.9025H11.6081V29.3125H10.665V27.6069C10.665 27.348 10.4551 27.1381 10.1962 27.1381C9.93738 27.1381 9.7275 27.348 9.7275 27.6069V29.7812C9.7275 30.0401 9.93738 30.25 10.1962 30.25H12.0769C12.3357 30.25 12.5456 30.0401 12.5456 29.7812V22.9025H19.4546V29.7812C19.4546 30.0401 19.6645 30.2499 19.9234 30.2499H21.8039C22.0627 30.2499 22.2726 30.0401 22.2726 29.7812V22.9025H29.1819V29.7812C29.1819 30.0401 29.3918 30.2499 29.6507 30.2499H31.5312C31.7901 30.2499 32 30.0401 32 29.7812V1.40875C32 0.631938 31.3678 0 30.5906 0ZM1.8805 29.3124H0.9375V22.821C1.08512 22.8736 1.24387 22.9025 1.40937 22.9025H1.88056V29.3124H1.8805ZM21.3352 29.3124H20.3922V22.9025H21.3352V29.3124ZM30.1195 29.3124V22.9025H30.5907C30.7561 22.9025 30.9149 22.8736 31.0626 22.821V29.3124H30.1195Z" fill="#161616"/>
<path d="M29.6503 15.2705H21.8037C21.5448 15.2705 21.335 15.4804 21.335 15.7393V20.5536C21.335 20.8124 21.5448 21.0223 21.8037 21.0223H29.6503C29.9091 21.0223 30.119 20.8124 30.119 20.5536V15.7393C30.1191 15.4804 29.9092 15.2705 29.6503 15.2705ZM29.1816 20.0849H22.2725V16.2081H29.1815V20.0849H29.1816Z" fill="#161616"/>
<path d="M30.1193 2.34961C30.1193 2.09073 29.9095 1.88086 29.6506 1.88086H21.8037C21.5448 1.88086 21.335 2.09073 21.335 2.34961V7.16398C21.335 7.42286 21.5448 7.63273 21.8037 7.63273H25.3C25.5588 7.63273 25.7687 7.42286 25.7687 7.16398C25.7687 6.90511 25.5588 6.69523 25.3 6.69523H22.2725V2.81836H29.1818V6.69523H27.4862C27.2273 6.69523 27.0175 6.90511 27.0175 7.16398C27.0175 7.42286 27.2273 7.63273 27.4862 7.63273H29.6506C29.9095 7.63273 30.1193 7.42286 30.1193 7.16398V2.34961Z" fill="#161616"/>
<path d="M11.6084 13.8583C11.6084 14.1171 11.8183 14.327 12.0771 14.327H19.9238C20.1826 14.327 20.3925 14.1171 20.3925 13.8583V9.04395C20.3925 8.78507 20.1826 8.5752 19.9238 8.5752H12.0771C11.8183 8.5752 11.6084 8.78507 11.6084 9.04395V13.8583ZM12.5459 9.5127H19.455V13.3895H12.5459V9.5127Z" fill="#161616"/>
<path d="M2.34961 7.63273H10.1962C10.455 7.63273 10.6649 7.42286 10.6649 7.16398V2.34961C10.6649 2.09073 10.455 1.88086 10.1962 1.88086H2.34961C2.09073 1.88086 1.88086 2.09073 1.88086 2.34961V7.16392C1.88086 7.42286 2.09073 7.63273 2.34961 7.63273ZM2.81836 2.81836H9.72742V6.69517H2.81836V2.81836Z" fill="#161616"/>
<path d="M1.88086 20.5536C1.88086 20.8124 2.09073 21.0223 2.34961 21.0223H10.1962C10.455 21.0223 10.6649 20.8124 10.6649 20.5536V15.7393C10.6649 15.4804 10.455 15.2705 10.1962 15.2705H2.34961C2.09073 15.2705 1.88086 15.4804 1.88086 15.7393V20.5536ZM2.81836 16.2079H9.72742V20.0848H2.81836V16.2079Z" fill="#161616"/>
<path d="M12.0771 7.63273H19.9238C20.1826 7.63273 20.3925 7.42286 20.3925 7.16398V2.34961C20.3925 2.09073 20.1826 1.88086 19.9238 1.88086H12.0771C11.8183 1.88086 11.6084 2.09073 11.6084 2.34961V7.16392C11.6084 7.42286 11.8183 7.63273 12.0771 7.63273ZM12.5459 2.81836H19.455V6.69517H12.5459V2.81836Z" fill="#161616"/>
<path d="M30.1191 9.04395C30.1191 8.78507 29.9092 8.5752 29.6503 8.5752H21.8037C21.5448 8.5752 21.335 8.78507 21.335 9.04395V13.8583C21.335 14.1171 21.5448 14.327 21.8037 14.327H29.6503C29.9091 14.327 30.119 14.1171 30.119 13.8583V9.04395H30.1191ZM29.1816 13.3895H22.2725V9.5127H29.1815V13.3895H29.1816Z" fill="#161616"/>
<path d="M11.6084 20.5536C11.6084 20.8124 11.8183 21.0223 12.0771 21.0223H19.9238C20.1826 21.0223 20.3925 20.8124 20.3925 20.5536V15.7393C20.3925 15.4804 20.1826 15.2705 19.9238 15.2705H12.0771C11.8183 15.2705 11.6084 15.4804 11.6084 15.7393V20.5536ZM12.5459 16.2079H19.455V20.0848H12.5459V16.2079Z" fill="#161616"/>
<path d="M1.88086 13.8583C1.88086 14.1171 2.09073 14.327 2.34961 14.327H10.1962C10.455 14.327 10.6649 14.1171 10.6649 13.8583V9.04395C10.6649 8.78507 10.455 8.5752 10.1962 8.5752H2.34961C2.09073 8.5752 1.88086 8.78507 1.88086 9.04395V13.8583ZM2.81836 9.5127H9.72742V13.3895H2.81836V9.5127Z" fill="#161616"/>
</svg>
