<svg width="32" height="33" viewBox="0 0 32 33" fill="none" xmlns="http://www.w3.org/2000/svg">
<g id="Capa_1" clip-path="url(#clip0_740_15054)">
<g id="Group">
<path id="Vector" d="M30.5881 27.6493V26.5991C30.5881 25.6374 30.0062 24.8094 29.1761 24.4475V11.0122C29.4991 10.9297 29.7953 10.7621 30.0371 10.5202C30.8745 9.68294 30.7398 8.29144 29.7488 7.62606C30.4383 6.82275 30.8233 5.79713 30.8233 4.71925C30.8234 2.25488 28.8185 0.25 26.3542 0.25C23.8898 0.25 21.8849 2.25488 21.8849 4.71925C21.8849 5.79688 22.2698 6.82231 22.9591 7.62556C21.8801 8.34631 21.8349 9.90681 22.8669 10.6894C21.7198 10.9524 20.5546 11.1581 19.3902 11.3017C19.1333 11.3333 18.9507 11.5673 18.9824 11.8242C19.0141 12.0819 19.2493 12.2641 19.5049 12.2321C20.8556 12.0656 22.2075 11.8184 23.5323 11.4961V14.4742C21.7169 14.9284 19.0317 15.4379 15.9927 15.4858C13.3597 15.5276 10.8951 15.225 8.46762 14.5636V11.5899C11.1858 12.3007 14.1422 12.6155 17.2967 12.4318C17.5552 12.4167 17.7525 12.1949 17.7374 11.9365C17.7224 11.6781 17.5007 11.4808 17.2422 11.4958C14.409 11.6611 11.6508 11.4143 9.02856 10.7647C10.1651 10.0183 10.1572 8.37569 9.04056 7.62606C9.73019 6.82275 10.1152 5.79713 10.1152 4.71925C10.1151 2.25488 8.11019 0.25 5.64581 0.25C3.1815 0.25 1.17663 2.25488 1.17663 4.71925C1.17663 5.79688 1.56144 6.82231 2.25075 7.62556C1.74544 7.96313 1.41188 8.53844 1.41188 9.19044C1.41188 10.0656 2.01288 10.8031 2.82381 11.012V24.4476C1.99381 24.8095 1.41188 25.6375 1.41188 26.5993V27.6494C0.559875 28.2361 0 29.218 0 30.3286C0 31.3881 0.861938 32.25 1.92144 32.25H9.37019C10.4297 32.25 11.2917 31.3881 11.2917 30.3286C11.2917 29.218 10.7318 28.2361 9.87975 27.6493V26.5991C9.87975 25.6372 9.29769 24.8091 8.4675 24.4474V20.9694C8.4675 20.7104 8.25769 20.5006 7.99875 20.5006C7.73981 20.5006 7.53 20.7104 7.53 20.9694V24.2529H3.76137V11.0711H7.53006V18.7819C7.53006 19.0408 7.73988 19.2506 7.99881 19.2506C8.25775 19.2506 8.46756 19.0408 8.46756 18.7819V15.5341C10.7494 16.1331 13.0656 16.427 15.5153 16.427C18.1878 16.427 20.9333 16.0712 23.5322 15.4397V24.4475C22.7022 24.8093 22.1203 25.6374 22.1203 26.5992V27.6493C21.2683 28.2362 20.7083 29.2181 20.7083 30.3286C20.7083 31.3881 21.5703 32.2501 22.6298 32.2501H30.0786C31.1381 32.25 32 31.3881 32 30.3286C32 29.218 31.4401 28.2361 30.5881 27.6493ZM2.11413 4.71925C2.11413 2.77188 3.69844 1.1875 5.64581 1.1875C7.59319 1.1875 9.17756 2.77188 9.17756 4.71925C9.17756 5.70956 8.76637 6.64394 8.04362 7.31131C7.91862 7.30863 3.25394 7.31069 3.2475 7.31081C2.52513 6.64344 2.11413 5.70925 2.11413 4.71925ZM2.34944 9.19038C2.34944 8.67031 2.77256 8.24713 3.29212 8.24713C8.1525 8.25206 7.92794 8.23625 8.13744 8.25731C8.59625 8.324 8.94225 8.72513 8.94225 9.19038C8.94225 9.71163 8.52038 10.1336 7.999 10.1336H3.29262C2.7725 10.1336 2.34944 9.71044 2.34944 9.19038ZM10.3542 30.3286C10.3542 30.8711 9.91275 31.3125 9.37019 31.3125H1.92144C1.37894 31.3125 0.9375 30.8711 0.9375 30.3286C0.9375 29.0524 1.97569 28.0142 3.25181 28.0142H8.03981C9.316 28.0142 10.3542 29.0524 10.3542 30.3286ZM8.94225 26.5991V27.2051C8.6555 27.1221 8.35294 27.0767 8.03981 27.0767H3.25181C2.93869 27.0767 2.63613 27.1221 2.34944 27.2051V26.5991C2.34944 25.8223 2.98144 25.1904 3.75825 25.1904H7.53344C8.31025 25.1904 8.94225 25.8223 8.94225 26.5991ZM24.4697 11.0711H28.2387V24.2529H24.4697V11.0711ZM28.7074 10.1336H24.0009C23.4809 10.1336 23.0577 9.71044 23.0577 9.19038C23.0577 8.67031 23.4809 8.24713 24.0004 8.24713C28.8645 8.25219 28.6363 8.23625 28.8457 8.25731C29.3045 8.324 29.6505 8.72513 29.6505 9.19038C29.6506 9.71156 29.2288 10.1336 28.7074 10.1336ZM22.8224 4.71925C22.8224 2.77188 24.4068 1.1875 26.3542 1.1875C28.3016 1.1875 29.8859 2.77188 29.8859 4.71925C29.8859 5.70956 29.4747 6.64394 28.752 7.31131C28.6335 7.30875 23.9726 7.31044 23.9559 7.31081C23.2334 6.64344 22.8224 5.70925 22.8224 4.71925ZM23.0578 26.5991C23.0578 25.8223 23.6898 25.1904 24.4666 25.1904H28.2418C29.0186 25.1904 29.6506 25.8223 29.6506 26.5991V27.2051C29.3638 27.1221 29.0613 27.0767 28.7481 27.0767H23.9601C23.647 27.0767 23.3444 27.1221 23.0577 27.2051V26.5991H23.0578ZM30.0786 31.3125H22.6298C22.0872 31.3125 21.6458 30.8711 21.6458 30.3286C21.6458 29.0524 22.684 28.0142 23.9601 28.0142H28.7481C30.0243 28.0142 31.0624 29.0524 31.0624 30.3286C31.0625 30.8711 30.6211 31.3125 30.0786 31.3125Z" fill="#161616"/>
</g>
</g>
<defs>
<clipPath id="clip0_740_15054">
<rect width="32" height="32" fill="white" transform="translate(0 0.25)"/>
</clipPath>
</defs>
</svg>
