<svg width="32" height="32" viewBox="0 0 32 32" fill="none" xmlns="http://www.w3.org/2000/svg">
<g clip-path="url(#clip0_740_14931)">
<path d="M22.7456 0H9.25434C7.26552 0 5.64746 1.61775 5.64746 3.60625V8.1875C5.64746 8.44644 5.85727 8.65625 6.11621 8.65625C6.37515 8.65625 6.58496 8.44644 6.58496 8.1875V3.60625C6.58496 2.13469 7.7824 0.9375 9.25434 0.9375H22.7456C24.2175 0.9375 25.415 2.13469 25.415 3.60625V23.5419C25.415 23.8008 25.6248 24.0106 25.8837 24.0106C26.1427 24.0106 26.3525 23.8008 26.3525 23.5419V3.60625C26.3525 1.61775 24.7344 0 22.7456 0Z" fill="#161616"/>
<path d="M25.8837 25.2606C25.6248 25.2606 25.415 25.4704 25.415 25.7294V28.3937C25.415 29.8653 24.2175 31.0625 22.7456 31.0625H9.25434C7.7824 31.0625 6.58496 29.8653 6.58496 28.3937V10.375C6.58496 10.1161 6.37515 9.90625 6.11621 9.90625C5.85727 9.90625 5.64746 10.1161 5.64746 10.375V28.3937C5.64746 30.3822 7.26552 32 9.25434 32H22.7456C24.7344 32 26.3525 30.3822 26.3525 28.3937V25.7294C26.3525 25.4704 26.1426 25.2606 25.8837 25.2606Z" fill="#161616"/>
<path d="M15.9995 26.8231C18.5936 26.8231 20.704 24.7126 20.704 22.1186C20.704 19.5244 18.5935 17.4141 15.9995 17.4141C13.4054 17.4141 11.2949 19.5245 11.2949 22.1186C11.2949 24.7126 13.4054 26.8231 15.9995 26.8231ZM15.9995 18.3515C18.0766 18.3515 19.7665 20.0414 19.7665 22.1185C19.7665 24.1957 18.0766 25.8856 15.9995 25.8856C13.9224 25.8856 12.2324 24.1957 12.2324 22.1185C12.2324 20.0414 13.9224 18.3515 15.9995 18.3515Z" fill="#161616"/>
<path d="M15.9998 24.4693C17.2963 24.4693 18.3511 23.4145 18.3511 22.1179C18.3511 20.8214 17.2963 19.7666 15.9998 19.7666C14.7033 19.7666 13.6484 20.8214 13.6484 22.1179C13.6484 23.4145 14.7033 24.4693 15.9998 24.4693ZM15.9998 20.704C16.7794 20.704 17.4136 21.3382 17.4136 22.1179C17.4136 22.8975 16.7794 23.5317 15.9998 23.5317C15.2201 23.5317 14.5859 22.8975 14.5859 22.1179C14.5859 21.3383 15.2201 20.704 15.9998 20.704Z" fill="#161616"/>
<path d="M15.9995 2.35352C13.5351 2.35352 11.5303 4.35839 11.5303 6.82277C11.5303 9.28714 13.5351 11.292 15.9995 11.292C18.4639 11.292 20.4688 9.28714 20.4688 6.82277C20.4688 4.35839 18.4639 2.35352 15.9995 2.35352ZM15.9995 10.3545C14.0521 10.3545 12.4678 8.77014 12.4678 6.82277C12.4678 4.87539 14.0521 3.29102 15.9995 3.29102C17.9469 3.29102 19.5313 4.87539 19.5313 6.82277C19.5313 8.77014 17.9469 10.3545 15.9995 10.3545Z" fill="#161616"/>
<path d="M15.9998 4.70605C14.833 4.70605 13.8838 5.6553 13.8838 6.82212C13.8838 7.98893 14.833 8.93812 15.9998 8.93812C17.1665 8.93812 18.1158 7.98893 18.1158 6.82212C18.1158 5.65524 17.1666 4.70605 15.9998 4.70605ZM15.9998 8.00062C15.3499 8.00062 14.8213 7.47193 14.8213 6.82212C14.8213 6.1723 15.35 5.64355 15.9998 5.64355C16.6496 5.64355 17.1783 6.17224 17.1783 6.82212C17.1783 7.47193 16.6496 8.00062 15.9998 8.00062Z" fill="#161616"/>
<path d="M9.92121 16.4333C9.31833 17.0369 9.11214 17.9541 9.42271 18.7715C9.46046 18.8703 9.57514 19.1711 9.43608 19.5219C8.76633 21.214 8.78277 23.1478 9.4812 24.8275C9.57314 25.0485 9.57764 25.2991 9.49439 25.5321L9.40771 25.7726C9.12127 26.5683 9.32289 27.4695 9.92139 28.0689L10.1827 28.3301C10.7818 28.9285 11.6832 29.1301 12.4787 28.8436L12.8253 28.7189C13.0476 28.6392 13.289 28.6402 13.505 28.7218C15.1131 29.3308 16.8858 29.3315 18.4953 28.722C18.7118 28.6403 18.9533 28.6393 19.1751 28.7188L19.5221 28.8436C20.3177 29.13 21.219 28.9285 21.8183 28.33L22.0796 28.0686C22.7298 27.4175 22.8885 26.5016 22.5149 25.5558C22.504 25.5253 22.5077 25.5356 22.5068 25.5333C22.4231 25.2991 22.4276 25.0485 22.5196 24.8275C23.218 23.1478 23.2345 21.214 22.5647 19.5218C22.5646 19.5218 22.5646 19.5216 22.5646 19.5216C22.4252 19.1701 22.5398 18.8713 22.5775 18.773C22.8828 17.9761 22.6961 17.0505 22.0794 16.433L21.8181 16.1718C21.219 15.5735 20.3178 15.3719 19.5232 15.6578C19.2842 15.7432 19.0244 15.7349 18.792 15.6349C17.0179 14.8704 14.9828 14.8704 13.2087 15.6349C12.9758 15.7352 12.7164 15.7436 12.4782 15.658C11.6823 15.3727 10.7813 15.5743 10.1825 16.172L9.92121 16.4333ZM10.5844 17.096L10.8451 16.8352C11.1885 16.4925 11.7053 16.3767 12.1616 16.5404C12.624 16.7064 13.1277 16.6907 13.5798 16.4958C15.1182 15.833 16.8828 15.833 18.4212 16.4959C18.8721 16.6901 19.3753 16.706 19.8396 16.5403C20.2954 16.3763 20.8121 16.492 21.1554 16.8349L21.4163 17.0957C21.7594 17.4393 21.8751 17.9559 21.711 18.4118C21.7098 18.415 21.7114 18.4105 21.7021 18.4375C21.5142 18.9273 21.5112 19.4083 21.693 19.8669C22.2738 21.3342 22.2595 23.0111 21.654 24.4674C21.4572 24.9405 21.4694 25.459 21.6429 25.9002C21.8081 26.3183 21.9028 26.9189 21.4164 27.4059L21.1556 27.6668C20.812 28.0098 20.2956 28.1256 19.8395 27.9615L19.4921 27.8365C19.0606 27.6816 18.5888 27.6845 18.1636 27.845C16.7686 28.3732 15.232 28.3733 13.8365 27.8448C13.4121 27.6846 12.9407 27.6814 12.5081 27.8366L12.1611 27.9615C11.7053 28.1255 11.1887 28.01 10.8453 27.667L10.5845 27.4061C10.2413 27.0626 10.1256 26.546 10.2896 26.0902L10.3767 25.8487C10.539 25.3946 10.5283 24.9041 10.3467 24.4675C9.74114 23.0111 9.72689 21.3343 10.3076 19.8672C10.489 19.4096 10.486 18.9285 10.2985 18.4373C10.2895 18.4111 10.2908 18.4151 10.2896 18.4118C10.1258 17.9559 10.2414 17.4393 10.5844 17.096Z" fill="#161616"/>
<path d="M9.41104 2.35352C8.6336 2.35352 8.00098 2.98608 8.00098 3.76352C8.00098 4.54095 8.63354 5.17358 9.41104 5.17358C10.1885 5.17358 10.8211 4.54102 10.8211 3.76352C10.8211 2.98608 10.1885 2.35352 9.41104 2.35352ZM9.41104 4.23608C9.15048 4.23608 8.93848 4.02408 8.93848 3.76352C8.93848 3.50295 9.15048 3.29102 9.41104 3.29102C9.6716 3.29102 9.8836 3.50302 9.8836 3.76352C9.8836 4.02414 9.6716 4.23608 9.41104 4.23608Z" fill="#161616"/>
<path d="M23.9988 3.76352C23.9988 2.98608 23.3662 2.35352 22.5887 2.35352C21.8113 2.35352 21.1787 2.98608 21.1787 3.76352C21.1787 4.54095 21.8113 5.17358 22.5887 5.17358C23.3662 5.17352 23.9988 4.54095 23.9988 3.76352ZM22.1162 3.76352C22.1162 3.50295 22.3282 3.29102 22.5887 3.29102C22.8493 3.29102 23.0613 3.50302 23.0613 3.76352C23.0613 4.02408 22.8493 4.23608 22.5887 4.23608C22.3282 4.23602 22.1162 4.02408 22.1162 3.76352Z" fill="#161616"/>
</g>
<defs>
<clipPath id="clip0_740_14931">
<rect width="32" height="32" fill="white"/>
</clipPath>
</defs>
</svg>
