<svg width="24" height="25" viewBox="0 0 24 25" fill="none" xmlns="http://www.w3.org/2000/svg">
<path fill-rule="evenodd" clip-rule="evenodd" d="M19.0859 5.40685C18.1634 4.48268 17.0658 3.74988 15.8567 3.25091C14.6476 2.75194 13.3511 2.49672 12.0421 2.50003C6.55351 2.50003 2.08541 6.94582 2.08319 12.4106C2.08319 14.1571 2.54132 15.8617 3.41209 17.3653L2 22.5L7.27897 21.1211C8.73919 21.9122 10.3751 22.3271 12.0377 22.3278H12.0421C17.5296 22.3278 21.9977 17.882 22 12.4172C22.0037 11.115 21.7481 9.82503 21.248 8.62175C20.7478 7.41847 20.013 6.32578 19.0859 5.40685ZM12.0421 20.6552H12.0388C10.5563 20.6554 9.10108 20.2584 7.82583 19.506L7.52412 19.3271L4.39156 20.1452L5.22684 17.1059L5.0305 16.7946C4.20165 15.4813 3.76287 13.9615 3.76483 12.4106C3.76705 7.86876 7.47974 4.17369 12.0455 4.17369C13.1328 4.17128 14.2098 4.38354 15.2142 4.79816C16.2186 5.21279 17.1304 5.82156 17.8968 6.58923C18.6673 7.35324 19.278 8.26166 19.6937 9.262C20.1093 10.2623 20.3216 11.3347 20.3183 12.4172C20.3161 16.9591 16.6034 20.6552 12.0421 20.6552ZM16.5823 14.485C16.3327 14.3602 15.1103 13.7619 14.8818 13.6791C14.6544 13.5963 14.4892 13.5554 14.3228 13.8027C14.1564 14.05 13.6794 14.6075 13.5341 14.7731C13.3888 14.9387 13.2435 14.9586 12.995 14.835C12.7465 14.7113 11.9445 14.4497 10.9939 13.6062C10.254 12.9493 9.75484 12.139 9.60952 11.8906C9.46421 11.6422 9.59399 11.5086 9.71934 11.385C9.83138 11.2746 9.96782 11.0957 10.0921 10.9511C10.2163 10.8065 10.2573 10.7038 10.3405 10.5382C10.4237 10.3726 10.3827 10.228 10.3195 10.1043C10.2573 9.9796 9.75927 8.76079 9.55184 8.26509C9.35107 7.78485 9.14585 7.84889 8.99278 7.84226C8.83424 7.83581 8.67557 7.83286 8.5169 7.83343C8.39073 7.83663 8.26658 7.86574 8.15225 7.91893C8.03791 7.97213 7.93584 8.04826 7.85246 8.14255C7.62395 8.39095 6.98169 8.98931 6.98169 10.2081C6.98169 11.4269 7.87353 12.6049 7.99777 12.7705C8.12201 12.9361 9.75262 15.4366 12.2485 16.5097C12.843 16.7647 13.3067 16.9171 13.6672 17.0319C14.2629 17.2207 14.8053 17.1931 15.2346 17.1302C15.7127 17.0595 16.7066 16.5318 16.914 15.9533C17.1214 15.3748 17.1214 14.8791 17.0593 14.7753C16.9972 14.6716 16.8297 14.6086 16.5823 14.485Z" fill="#60A22D"/>
</svg>
