<svg width="32" height="33" viewBox="0 0 32 33" fill="none" xmlns="http://www.w3.org/2000/svg">
<g id="Capa_1" clip-path="url(#clip0_740_15043)">
<g id="Group">
<g id="Group_2">
<path id="Vector" d="M26.3519 27.6456V5.34675C26.3519 2.53637 24.0655 0.25 21.2552 0.25H10.744C7.93366 0.25 5.64729 2.53637 5.64729 5.34675V27.6453C4.81885 27.9094 4.23535 28.6802 4.23535 29.5849V30.2124C4.23535 31.3359 5.14941 32.25 6.27298 32.25H25.7262C26.8498 32.25 27.7639 31.3359 27.7639 30.2124V29.5849C27.7639 28.6806 27.1809 27.9101 26.3519 27.6456ZM10.744 1.1875H21.2552C23.5485 1.1875 25.4144 3.05337 25.4144 5.34675V27.5471C24.914 27.5479 24.4307 27.548 23.9984 27.5478C23.9987 14.5234 23.9987 18.3259 23.9984 10.8956C23.9984 9.17769 22.601 7.78 20.8834 7.78H19.834C19.575 7.78 19.3652 7.98981 19.3652 8.24875C19.3652 8.50769 19.575 8.7175 19.834 8.7175H20.8834C22.084 8.7175 23.0609 9.69462 23.0609 10.8956V16.2519H20.659C19.3884 16.2519 18.3547 17.2856 18.3547 18.5561V20.0622C18.3547 21.3328 19.3884 22.3664 20.659 22.3664H23.0609V27.5474H8.93835V19.8988C8.93835 19.6398 8.72854 19.43 8.4696 19.43C8.21066 19.43 8.00085 19.6398 8.00085 19.8988V27.5478C7.32735 27.5481 6.96854 27.5474 6.58485 27.5469V5.34675C6.58479 3.05337 8.45066 1.1875 10.744 1.1875ZM23.0611 17.1894V21.4289H20.659C19.9053 21.4289 19.2922 20.8158 19.2922 20.0622V18.5561C19.2922 17.8024 19.9054 17.1894 20.659 17.1894H23.0611ZM26.8264 30.2124C26.8264 30.819 26.3329 31.3125 25.7262 31.3125H6.27298C5.66641 31.3125 5.17285 30.819 5.17285 30.2124V29.5849C5.17285 29.0169 5.59823 28.5466 6.16641 28.4902C6.26529 28.4794 26.458 28.484 25.8369 28.4907C26.4009 28.5465 26.8263 29.0169 26.8263 29.5849V30.2124H26.8264Z" fill="#161616"/>
<path id="Vector_2" d="M8.46979 18.1803C8.72873 18.1803 8.93854 17.9705 8.93854 17.7115V10.8959C8.93854 9.6949 9.91541 8.71777 11.1161 8.71777H17.6467C17.9056 8.71777 18.1154 8.50796 18.1154 8.24902C18.1154 7.99009 17.9056 7.78027 17.6467 7.78027H11.116C9.39841 7.78027 8.00098 9.1779 8.00098 10.8959V17.7115C8.00104 17.9704 8.21085 18.1803 8.46979 18.1803Z" fill="#161616"/>
<path id="Vector_3" d="M21.1768 20.0136C21.4357 20.0136 21.6455 19.8038 21.6455 19.5448V19.0742C21.6455 18.8153 21.4357 18.6055 21.1768 18.6055C20.9178 18.6055 20.708 18.8153 20.708 19.0742V19.5448C20.708 19.8037 20.9178 20.0136 21.1768 20.0136Z" fill="#161616"/>
<path id="Vector_4" d="M10.8242 11.7791C10.8242 12.6864 11.5623 13.4245 12.4695 13.4245H19.5292C20.4365 13.4245 21.1745 12.6864 21.1745 11.7791C21.1745 10.8719 20.4364 10.1338 19.5292 10.1338H12.4696C11.5623 10.1338 10.8242 10.8719 10.8242 11.7791ZM20.2371 11.7791C20.2371 12.1694 19.9196 12.487 19.5293 12.487H12.4696C12.0793 12.487 11.7618 12.1694 11.7618 11.7791C11.7618 11.3888 12.0793 11.0713 12.4696 11.0713H19.5293C19.9196 11.0713 20.2371 11.3888 20.2371 11.7791Z" fill="#161616"/>
<path id="Vector_5" d="M12.4956 6.04449C12.5578 6.23105 12.7299 6.35899 12.9265 6.3648C13.1257 6.36911 13.3025 6.25293 13.3756 6.0703L13.8817 4.80518L14.3877 6.0703C14.4593 6.24918 14.6352 6.37011 14.8367 6.3648C15.0333 6.35899 15.2054 6.23105 15.2677 6.04449L16.209 3.22061C16.2908 2.97499 16.1581 2.70949 15.9125 2.62768C15.6668 2.54586 15.4015 2.67855 15.3196 2.92411L14.783 4.53399L14.317 3.36893C14.2457 3.19093 14.0734 3.07424 13.8817 3.07424C13.6901 3.07424 13.5177 3.19093 13.4465 3.36893L12.9805 4.53399L12.4438 2.92411C12.3619 2.67855 12.0966 2.54593 11.8509 2.62768C11.6053 2.70955 11.4726 2.97505 11.5545 3.22061L12.4956 6.04449Z" fill="#161616"/>
<path id="Vector_6" d="M20.3126 5.8857C20.5055 5.71295 20.5217 5.41657 20.349 5.22376C20.1763 5.03107 19.88 5.01463 19.687 5.18745C19.3146 5.5212 18.7455 5.50513 18.3916 5.15113C18.0238 4.78338 18.0238 4.18507 18.3916 3.81732C18.7455 3.46313 19.3146 3.44726 19.6871 3.78095C19.88 3.95388 20.1764 3.93751 20.349 3.74457C20.5218 3.55176 20.5055 3.25545 20.3126 3.0827C19.5695 2.41707 18.4345 2.44857 17.7286 3.15432C16.9954 3.88757 16.9954 5.08076 17.7286 5.81407C18.4353 6.5207 19.5704 6.55063 20.3126 5.8857Z" fill="#161616"/>
</g>
</g>
</g>
<defs>
<clipPath id="clip0_740_15043">
<rect width="32" height="32" fill="white" transform="translate(0 0.25)"/>
</clipPath>
</defs>
</svg>
