<svg width="32" height="32" viewBox="0 0 32 32" fill="none" xmlns="http://www.w3.org/2000/svg">
<g clip-path="url(#clip0_740_15013)">
<path d="M20.7066 10.0357H25.0995C25.4446 10.0357 25.7245 9.75581 25.7245 9.41069V7.5255H29.4924C30.8751 7.5255 32 6.40056 32 5.01788V2.50763C32 1.12494 30.8751 0 29.4924 0H2.50763C1.12494 0 0 1.12494 0 2.50763V29.4925C0 30.8751 1.12487 32 2.5075 32H30.1199C31.1566 32 32 31.1566 32 30.1199V26.3546C32 25.3179 31.1566 24.4745 30.1199 24.4745H27.3659L28.1687 22.8688C28.2223 22.7616 28.2476 22.6254 28.2274 22.4943L27.8555 20.0766H30.1199C30.5026 20.0766 30.7958 19.7351 30.7376 19.3565L29.9651 14.3361C29.9182 14.0312 29.6559 13.8062 29.3474 13.8062H26.9796V11.9209C26.9796 11.5758 26.6998 11.2959 26.3546 11.2959H17.5689C17.3321 11.2959 17.1157 11.4297 17.0099 11.6414C16.904 11.8532 16.9269 12.1065 17.0689 12.2959L18.7939 14.5959L17.5787 22.4943C17.5589 22.6231 17.5831 22.7603 17.6374 22.8689L18.4402 24.4745H11.2908V7.5255H20.0816V9.41069C20.0816 9.75587 20.3614 10.0357 20.7066 10.0357ZM24.4745 8.78569H21.3316V7.5255H24.4745V8.78569ZM19.9877 15.0561H25.8184L26.8812 21.9643H18.9249L19.9877 15.0561ZM29.3914 18.8266H27.6632L27.0831 15.0562H28.8111L29.3914 18.8266ZM25.7296 12.5459V13.8061H19.7641L18.8189 12.5459H25.7296ZM19.2077 23.2143H26.5984L25.9683 24.4745H19.8378L19.2077 23.2143ZM10.6658 6.2755C10.3207 6.2755 10.0408 6.55531 10.0408 6.9005V25.0995C10.0408 25.4446 10.3207 25.7245 10.6658 25.7245H30.1199C30.4674 25.7245 30.75 26.0071 30.75 26.3546V30.1199C30.75 30.4674 30.4674 30.75 30.1199 30.75H2.5075C1.81406 30.75 1.25 30.1859 1.25 29.4925V2.50763C1.25 1.81413 1.81413 1.25 2.50763 1.25H29.4924C30.1859 1.25 30.75 1.81413 30.75 2.50763V5.01788C30.75 5.71138 30.1859 6.2755 29.4924 6.2755C28.699 6.2755 11.8833 6.2755 10.6658 6.2755Z" fill="#161616"/>
<path d="M18.8239 3.1377H3.7627C3.41757 3.1377 3.1377 3.41751 3.1377 3.7627C3.1377 4.10788 3.41757 4.3877 3.7627 4.3877H18.8239C19.1691 4.3877 19.4489 4.10782 19.4489 3.7627C19.4489 3.41757 19.1691 3.1377 18.8239 3.1377Z" fill="#161616"/>
<path d="M3.7627 25.7244H7.52801C7.87313 25.7244 8.15301 25.4445 8.15301 25.0994V6.90039C8.15301 6.5552 7.8732 6.27539 7.52801 6.27539H3.7627C3.41757 6.27539 3.1377 6.5552 3.1377 6.90039V25.0994C3.1377 25.4445 3.41757 25.7244 3.7627 25.7244ZM4.3877 7.52539H6.90301V24.4744H4.3877V7.52539Z" fill="#161616"/>
<path d="M28.2373 4.3877C28.5825 4.3877 28.8623 4.10787 28.8623 3.7627C28.8623 3.41752 28.5825 3.1377 28.2373 3.1377C27.8921 3.1377 27.6123 3.41752 27.6123 3.7627C27.6123 4.10787 27.8921 4.3877 28.2373 4.3877Z" fill="#161616"/>
<path d="M25.0996 4.3877C25.4448 4.3877 25.7246 4.10787 25.7246 3.7627C25.7246 3.41752 25.4448 3.1377 25.0996 3.1377C24.7544 3.1377 24.4746 3.41752 24.4746 3.7627C24.4746 4.10787 24.7544 4.3877 25.0996 4.3877Z" fill="#161616"/>
<path d="M21.9619 4.3877C22.3071 4.3877 22.5869 4.10787 22.5869 3.7627C22.5869 3.41752 22.3071 3.1377 21.9619 3.1377C21.6167 3.1377 21.3369 3.41752 21.3369 3.7627C21.3369 4.10787 21.6167 4.3877 21.9619 4.3877Z" fill="#161616"/>
<path d="M3.1377 28.2373C3.1377 28.5824 3.41757 28.8623 3.7627 28.8623H28.2372C28.5823 28.8623 28.8622 28.5824 28.8622 28.2373C28.8622 27.8922 28.5823 27.6123 28.2372 27.6123H3.7627C3.41757 27.6123 3.1377 27.8921 3.1377 28.2373Z" fill="#161616"/>
</g>
<defs>
<clipPath id="clip0_740_15013">
<rect width="32" height="32" fill="white"/>
</clipPath>
</defs>
</svg>
