<svg width="24" height="25" viewBox="0 0 24 25" fill="none" xmlns="http://www.w3.org/2000/svg">
<path d="M8.21707 1.14362C5.26857 2.15781 2.71852 4.34223 1.28411 7.07274C0.805978 8.00892 0.407532 9.02311 0.248154 10.1153C-0.30967 12.6898 0.0887759 15.4983 1.28411 17.8388C2.081 19.3991 3.19665 20.7253 4.63106 21.8175C5.90608 22.8317 7.42018 23.6119 9.09365 24.0019C11.1656 24.548 13.3172 24.548 15.3094 24.08C17.1423 23.6899 18.8954 22.8317 20.3298 21.5055C21.8439 20.1792 22.8799 18.4629 23.4377 16.5125C24.0752 14.4841 24.1549 12.2997 23.7565 10.1933C19.9314 10.1933 16.1063 10.1933 12.2812 10.1933V14.8742H18.8954C18.6563 16.3565 17.7001 17.7608 16.4251 18.5409C15.6282 19.087 14.6719 19.3991 13.7156 19.5551C12.7594 19.7111 11.7234 19.7111 10.7671 19.5551C9.81085 19.3991 8.85458 18.931 8.05769 18.3849C6.78266 17.5267 5.74671 16.2005 5.26857 14.7182C4.71075 13.2359 4.71075 11.5976 5.26857 10.0373C5.66702 9.02311 6.22484 8.00892 7.02173 7.22877C7.978 6.21458 9.25303 5.51245 10.6874 5.2784C11.8828 5.04436 13.0781 5.04436 14.2734 5.43443C15.2297 5.74649 16.186 6.29259 16.9032 6.91671C17.6204 6.21458 18.4173 5.43443 19.1345 4.7323C19.5329 4.34223 19.9314 3.95215 20.3298 3.56208C19.2142 2.54789 17.8595 1.68972 16.4251 1.14362C13.7953 0.285459 10.8468 0.285459 8.21707 1.14362Z" fill="white"/>
<path d="M8.21616 1.14395C10.8459 0.285791 13.7944 0.285792 16.4241 1.22197C17.8585 1.76807 19.2133 2.54822 20.3289 3.64042C19.9305 4.0305 19.532 4.42057 19.1336 4.81065C18.4164 5.51278 17.6195 6.29293 16.9023 6.99506C16.1851 6.29293 15.2288 5.74682 14.2725 5.51278C13.1569 5.20072 11.8819 5.1227 10.6865 5.35675C9.33181 5.66881 8.05678 6.37094 7.02082 7.30712C6.22393 8.08726 5.58642 9.10146 5.26766 10.1156C3.91295 9.10146 2.63792 8.08726 1.2832 7.07307C2.71761 4.34256 5.26766 2.15814 8.21616 1.14395Z" fill="#EA4335"/>
<path d="M0.248154 10.1158C0.487222 9.10163 0.805978 8.08743 1.28411 7.07324C2.63883 8.08743 3.91386 9.10163 5.26857 10.1158C4.71075 11.5981 4.71075 13.2364 5.26857 14.7967C3.91386 15.8109 2.63883 16.8251 1.28411 17.8393C0.0887759 15.4208 -0.30967 12.6903 0.248154 10.1158Z" fill="#FBBC05"/>
<path d="M12.2012 10.1934H23.6764C24.0749 12.2998 23.9952 14.4842 23.3577 16.5126C22.7998 18.3849 21.7639 20.1012 20.2498 21.5055C18.9748 20.4913 17.6997 19.5551 16.345 18.5409C17.62 17.6828 18.4966 16.3565 18.8154 14.8742C16.5841 14.8742 14.3528 14.8742 12.2012 14.8742C12.2012 13.3139 12.2012 11.7537 12.2012 10.1934Z" fill="#4285F4"/>
<path d="M1.28516 17.8394C2.63987 16.8253 3.9149 15.8111 5.26961 14.7969C5.74775 16.2792 6.78371 17.6054 8.05873 18.4636C8.85563 19.0097 9.8119 19.3997 10.7682 19.6338C11.7244 19.7898 12.6807 19.7898 13.7167 19.6338C14.6729 19.4778 15.6292 19.0877 16.4261 18.6196C17.7011 19.6338 18.9761 20.57 20.3309 21.5842C18.8965 22.8324 17.223 23.6906 15.3104 24.1586C13.2385 24.6267 11.0869 24.6267 9.09469 24.0806C7.50091 23.6906 5.98682 22.9104 4.6321 21.8962C3.27738 20.726 2.08205 19.3217 1.28516 17.8394Z" fill="#60A22D"/>
</svg>
